<svg width="28" height="32" viewBox="0 0 28 32" fill="none" xmlns="http://www.w3.org/2000/svg">
<path fill-rule="evenodd" clip-rule="evenodd" d="M4 0C1.79086 0 0 1.79086 0 4V24C0 26.2091 1.79086 28 4 28H11C11.4782 28 11.7277 28 11.9126 28.1093C12.1143 28.2286 12.2391 28.4782 12.5 29L13.5 32H14.5L15.5 29C15.7609 28.4782 15.8857 28.2286 16.0874 28.1093C16.2723 28 16.5218 28 17 28H24C26.2091 28 28 26.2091 28 24V4C28 1.79086 26.2091 0 24 0H4Z" fill="#439175"/>
<rect x="1" y="1" width="26" height="26" rx="3" fill="white"/>
</svg>
