<?xml version="1.0" encoding="UTF-8"?>
<svg width="142px" height="142px" viewBox="0 0 142 142" version="1.1" xmlns="http://www.w3.org/2000/svg" xmlns:xlink="http://www.w3.org/1999/xlink">
    <title>metro_mcd1</title>
    <g id="Page-1" stroke="none" stroke-width="1" fill="none" fill-rule="evenodd">
        <g id="metro_mcd1" transform="translate(0.000000, 31.000000)" fill-rule="nonzero">
            <path d="M28.9522452,0 L136.623877,0 C138.833016,0 140.623877,1.790861 140.623877,4 C140.623877,4.38929826 140.567047,4.77651144 140.455183,5.14939154 L119.710365,74.2987831 C118.695204,77.6826548 115.580621,80 112.047755,80 L4.3761226,80 C2.1669836,80 0.3761226,78.209139 0.3761226,76 C0.3761226,75.6107017 0.43295343,75.2234886 0.54481746,74.8506085 L21.2896349,5.70121692 C22.3047964,2.31734522 25.4193794,0 28.9522452,0 Z" id="Rectangle" fill="#F6A602"></path>
            <g id="Group" transform="translate(27.000000, 14.000000)" fill="#FFFFFF">
                <polygon id="Path" points="37.0287816 13.0442299 37.0287816 13.0442299 37.7651494 12.2026667"></polygon>
                <polygon id="Path" points="76.9504368 42.6041379 76.9504368 0.157793103 58.1730575 0.157793103 58.1730575 8.78381609 67.7458391 8.78381609 67.7458391 42.6041379 57.4366897 42.6041379 57.4366897 51.2301609 84.9978851 51.2301609 88.5745287 42.6041379"></polygon>
                <path d="M44.6028506,7.36367816 L44.6028506,7.36367816 L44.6028506,7.36367816 L44.6028506,7.36367816 C39.9216552,2.47209195 33.5047356,0.105195402 25.5098851,0.105195402 L2.73508046,0.105195402 L0.47337931,8.57342529 L8.62602299,8.57342529 L8.62602299,51.1775632 L25.5098851,51.1775632 C33.5047356,51.1775632 39.9216552,48.8106667 44.6028506,44.0242759 L44.6028506,44.0242759 L44.6028506,44.0242759 C49.2314483,39.1852874 51.4931494,33.083954 51.4931494,25.7202759 C51.4931494,18.3565977 49.2314483,12.2026667 44.6028506,7.36367816 L44.6028506,7.36367816 Z M37.0287816,13.0442299 C40.0794483,15.7793103 41.709977,19.9345287 41.709977,25.6676782 C41.709977,31.5586207 40.0794483,35.7138391 36.9761839,38.5015172 C33.8203218,41.2891954 29.8754943,42.761931 24.983908,42.761931 L17.9884138,42.761931 L17.9884138,8.67862069 L24.983908,8.67862069 C29.928092,8.67862069 33.8729195,10.203954 37.0287816,13.0442299 L37.0287816,13.0442299 Z" id="Shape"></path>
            </g>
        </g>
    </g>
</svg>