<?xml version="1.0" encoding="UTF-8"?>
<svg width="142px" height="142px" viewBox="0 0 142 142" version="1.1" xmlns="http://www.w3.org/2000/svg" xmlns:xlink="http://www.w3.org/1999/xlink">
    <title>metro_mcd2</title>
    <g id="Page-1" stroke="none" stroke-width="1" fill="none" fill-rule="evenodd">
        <g id="metro_mcd2" transform="translate(0.000000, 31.000000)" fill-rule="nonzero">
            <path d="M28.9522452,0 L136.623877,0 C138.833016,0 140.623877,1.790861 140.623877,4 C140.623877,4.38929826 140.567047,4.77651144 140.455183,5.14939154 L119.710365,74.2987831 C118.695204,77.6826548 115.580621,80 112.047755,80 L4.3761226,80 C2.1669836,80 0.3761226,78.209139 0.3761226,76 C0.3761226,75.6107017 0.43295343,75.2234886 0.54481746,74.8506085 L21.2896349,5.70121692 C22.3047964,2.31734522 25.4193794,0 28.9522452,0 Z" id="Rectangle" fill="#E74182"></path>
            <g id="Group" transform="translate(26.000000, 13.000000)" fill="#FFFFFF">
                <path d="M42.796,8.32 L42.796,8.32 L42.796,8.32 L42.796,8.32 C38.168,3.484 31.824,1.144 23.92,1.144 L2.236,1.144 L0.052,9.516 L7.228,9.516 L7.228,51.636 L23.92,51.636 C31.824,51.636 38.168,49.296 42.796,44.564 L42.796,44.564 L42.796,44.564 C47.372,39.78 49.608,33.748 49.608,26.468 C49.608,19.188 47.372,13.104 42.796,8.32 L42.796,8.32 Z M40.04,26.416 C40.04,32.24 38.428,36.348 35.36,39.104 C32.24,41.86 28.34,43.316 23.504,43.316 L16.588,43.316 L16.588,9.62 L23.504,9.62 C28.392,9.62 32.344,11.024 35.36,13.884 L35.36,13.884 L35.36,13.884 L35.36,13.884 C38.428,16.64 40.04,20.748 40.04,26.416 Z" id="Shape"></path>
                <path d="M70.344,43.16 L78.352,35.308 L78.352,35.308 C82.096,31.616 85.06,28.34 87.14,25.428 L87.14,25.428 L87.14,25.428 C89.272,22.308 90.364,19.032 90.364,15.496 C90.364,11.648 88.856,8.06 85.892,5.044 L85.892,5.044 C82.876,1.872 78.56,0.364 73.204,0.364 C69.46,0.364 65.976,1.196 62.804,2.808 C59.788,4.42 57.344,6.084 55.628,7.904 L55.628,7.904 L54.9,8.684 L60.88,14.664 L61.66,13.936 C63.012,12.688 64.676,11.544 66.756,10.504 L66.756,10.504 L66.756,10.504 L66.756,10.504 C68.68,9.464 70.812,8.892 73.204,8.892 C75.544,8.892 77.312,9.516 78.82,10.816 C80.224,12.064 81.004,13.728 81.004,15.86 C81.004,17.784 80.276,19.812 78.768,21.996 L78.768,21.996 L78.768,21.996 L78.768,21.996 C77.208,24.18 74.192,27.612 69.668,32.136 L69.668,32.136 L57.032,44.616 L57.032,51.636 L90.104,51.636 L93.224,43.108 C93.224,43.16 70.344,43.16 70.344,43.16 Z" id="Shape"></path>
            </g>
        </g>
    </g>
</svg>