<?xml version="1.0" encoding="UTF-8"?>
<svg width="60px" height="60px" viewBox="0 0 60 60" version="1.1" xmlns="http://www.w3.org/2000/svg" xmlns:xlink="http://www.w3.org/1999/xlink">
    <title>poi_showplace_7</title>
    <g id="poi_showplace_7" stroke="none" stroke-width="1" fill="none" fill-rule="evenodd">
        <path d="M46,7 L42,7 L22,7 L17,7 L13,7 C9.71883497,7 5.88620186,9.94729633 5,14 C4.30533709,19.765508 8.72867382,24.581398 15,24 C15.339002,24.1333354 16.4402093,23.7824052 17,23 L17,54 L22,54 L22,17 L27,17 L27,54 L32,54 L32,17 L37,17 L37,54 L42,54 L42,23 C42.3322085,23.6727395 43.168139,23.99077 44,24 C49.8848863,25.0294606 54.7739998,19.955073 54,14 C53.0419889,9.86583039 49.180052,6.95968987 46,7 Z" id="Fill-1" stroke="#FFFFFF" stroke-width="5"></path>
        <path d="M46,7 L42,7 L22,7 L17,7 L13,7 C9.71883497,7 5.88620186,9.94729633 5,14 C4.30533709,19.765508 8.72867382,24.581398 15,24 C15.339002,24.1333354 16.4402093,23.7824052 17,23 L17,54 L22,54 L22,17 L27,17 L27,54 L32,54 L32,17 L37,17 L37,54 L42,54 L42,23 C42.3322085,23.6727395 43.168139,23.99077 44,24 C49.8848863,25.0294606 54.7739998,19.955073 54,14 C53.0419889,9.86583039 49.180052,6.95968987 46,7 Z" id="Fill-1" fill="#646464"></path>
    </g>
</svg>