<?xml version="1.0" encoding="UTF-8"?>
<svg width="60px" height="60px" viewBox="0 0 60 60" version="1.1" xmlns="http://www.w3.org/2000/svg" xmlns:xlink="http://www.w3.org/1999/xlink">
    <title>poi_bicycle_7</title>
    <g id="poi_bicycle_7" stroke="none" stroke-width="1" fill="none" fill-rule="evenodd">
        <g id="Group" transform="translate(3.000000, 6.000000)" stroke="#FFFFFF" stroke-width="5">
            <path d="M12,25 C5.373,25 0,30.149125 0,36.5 C0,42.850875 5.373,48 12,48 C18.627,48 24,42.850875 24,36.5 C24,30.149125 18.627,25 12,25 M12,29.3125 C16.1355,29.3125 19.5,32.5368125 19.5,36.5 C19.5,40.4631875 16.1355,43.6875 12,43.6875 C7.8645,43.6875 4.5,40.4631875 4.5,36.5 C4.5,32.5368125 7.8645,29.3125 12,29.3125" id="Fill-1"></path>
            <path d="M42,25 C35.373,25 30,30.149125 30,36.5 C30,42.850875 35.373,48 42,48 C48.627,48 54,42.850875 54,36.5 C54,30.149125 48.627,25 42,25 M42,29.3125 C46.1355,29.3125 49.5,32.5368125 49.5,36.5 C49.5,40.4631875 46.1355,43.6875 42,43.6875 C37.8645,43.6875 34.5,40.4631875 34.5,36.5 C34.5,32.5368125 37.8645,29.3125 42,29.3125" id="Fill-3"></path>
            <polygon id="Fill-5" points="40.856077 38 30.8644373 12.8227182 23.3070004 10.3549265 17 10.3549265 17 6 24.02852 6 34.2498016 9.33877699 45 36.4206133"></polygon>
            <path d="M32.5,13 L32.5,8.66666667 C33.6945556,8.66666667 34.6666667,7.69455556 34.6666667,6.5 C34.6666667,5.30544444 33.6945556,4.33333333 32.5,4.33333333 L26,4.33333333 L26,0 L32.5,0 C36.0836667,0 39,2.91633333 39,6.5 C39,10.0836667 36.0836667,13 32.5,13" id="Fill-7"></path>
            <path d="M14.2857143,38 L10,38 C10,26.692 22.15,16 35,16 L35,20.4 C24.5471429,20.4 14.2857143,29.1178667 14.2857143,38" id="Fill-9"></path>
            <path d="M19.7087537,24 C19.6777308,23.9566126 15.9056297,18.820826 10,18.820826 L10,14 C17.971472,14 22.7983512,20.6880926 23,20.9725213 L19.7087537,24 Z" id="Fill-11"></path>
        </g>
        <g id="Group" transform="translate(3.000000, 6.000000)" fill="#646464">
            <path d="M12,25 C5.373,25 0,30.149125 0,36.5 C0,42.850875 5.373,48 12,48 C18.627,48 24,42.850875 24,36.5 C24,30.149125 18.627,25 12,25 M12,29.3125 C16.1355,29.3125 19.5,32.5368125 19.5,36.5 C19.5,40.4631875 16.1355,43.6875 12,43.6875 C7.8645,43.6875 4.5,40.4631875 4.5,36.5 C4.5,32.5368125 7.8645,29.3125 12,29.3125" id="Fill-1"></path>
            <path d="M42,25 C35.373,25 30,30.149125 30,36.5 C30,42.850875 35.373,48 42,48 C48.627,48 54,42.850875 54,36.5 C54,30.149125 48.627,25 42,25 M42,29.3125 C46.1355,29.3125 49.5,32.5368125 49.5,36.5 C49.5,40.4631875 46.1355,43.6875 42,43.6875 C37.8645,43.6875 34.5,40.4631875 34.5,36.5 C34.5,32.5368125 37.8645,29.3125 42,29.3125" id="Fill-3"></path>
            <polygon id="Fill-5" points="40.856077 38 30.8644373 12.8227182 23.3070004 10.3549265 17 10.3549265 17 6 24.02852 6 34.2498016 9.33877699 45 36.4206133"></polygon>
            <path d="M32.5,13 L32.5,8.66666667 C33.6945556,8.66666667 34.6666667,7.69455556 34.6666667,6.5 C34.6666667,5.30544444 33.6945556,4.33333333 32.5,4.33333333 L26,4.33333333 L26,0 L32.5,0 C36.0836667,0 39,2.91633333 39,6.5 C39,10.0836667 36.0836667,13 32.5,13" id="Fill-7"></path>
            <path d="M14.2857143,38 L10,38 C10,26.692 22.15,16 35,16 L35,20.4 C24.5471429,20.4 14.2857143,29.1178667 14.2857143,38" id="Fill-9"></path>
            <path d="M19.7087537,24 C19.6777308,23.9566126 15.9056297,18.820826 10,18.820826 L10,14 C17.971472,14 22.7983512,20.6880926 23,20.9725213 L19.7087537,24 Z" id="Fill-11"></path>
        </g>
    </g>
</svg>