<?xml version="1.0" encoding="UTF-8"?>
<svg width="60px" height="60px" viewBox="0 0 60 60" version="1.1" xmlns="http://www.w3.org/2000/svg" xmlns:xlink="http://www.w3.org/1999/xlink">
    <title>poi_fountain_7</title>
    <g id="poi_fountain_7" stroke="none" stroke-width="1" fill="none" fill-rule="evenodd">
        <g id="Group" transform="translate(8.000000, 5.000000)" stroke="#FFFFFF" stroke-width="5">
            <path d="M34.5,46 L10.5,46 C4.701,46 0,41.0751429 0,35 L45,35 C45,41.0751429 40.299,46 34.5,46" id="Fill-1"></path>
            <path d="M27,31 L18,31 C13.0305,31 9,26.9695 9,22 L36,22 C36,26.9695 31.9695,31 27,31" id="Fill-3"></path>
            <path d="M37.2050081,8 C36.7759429,8 36.326446,8.02933333 35.8565174,8.08946667 C30.4727706,8.78026667 25,13.544 25,19 C26.8082034,16.2734667 28.4733851,15.3641333 30.0364083,15.3641333 C33.1624549,15.3641333 35.8871649,19 38.572471,19 C41.2869652,19 44,16.2734667 44,13.544 C44,11.1768 41.7350027,8 37.2050081,8 M37.2050081,10.728 C40.0902527,10.728 41.2869652,12.5628 41.2869652,13.544 C41.2869652,14.7686667 39.7896152,16.2734667 38.572471,16.2734667 C38.079192,16.2734667 36.9335586,15.5328 36.1002381,14.9930667 C34.7984484,14.1497333 33.238344,13.1406667 31.4228435,12.7754667 C32.8720332,11.7238667 34.5751594,11.0037333 36.2023965,10.794 C36.5511944,10.75 36.8853983,10.728 37.2050081,10.728" id="Fill-5"></path>
            <path d="M6.79645134,8 C2.26499731,8 0,11.1768 0,13.544 C0,16.2734667 2.7144942,19 5.4289884,19 C8.11283509,19 10.8390045,15.3641333 13.9635917,15.3641333 C15.5266149,15.3641333 17.1917966,16.2734667 19,19 C19,13.544 13.5272294,8.78026667 8.1434826,8.08946667 C7.67355404,8.02933333 7.22405715,8 6.79645134,8 M6.79645134,10.728 L6.79645134,10.728 C7.11606114,10.728 7.44880559,10.75 7.79906291,10.794 C9.42484062,11.0037333 11.1279668,11.7238667 12.5786159,12.7754667 C10.761656,13.1406667 9.20155158,14.1497333 7.90122129,14.9930667 C7.06498195,15.5328 5.92080805,16.2734667 5.4289884,16.2734667 C4.21184423,16.2734667 2.7144942,14.7686667 2.7144942,13.544 C2.7144942,12.5628 3.9112067,10.728 6.79645134,10.728" id="Fill-7"></path>
            <path d="M22.5,0 C19.4616935,0 17,2.4311828 17,5.42857143 C17,8.42596006 22.5,13.5714286 22.5,19 C22.5,13.5714286 28,8.42596006 28,5.42857143 C28,2.4311828 25.5383065,0 22.5,0 M22.5,2.71428571 C24.0169355,2.71428571 25.25,3.93133641 25.25,5.42273425 C25.2219086,6.01228879 24.1780914,7.7546851 23.4861559,8.90752688 C23.1668011,9.44162826 22.8326613,9.99907834 22.5,10.5813364 C22.1673387,9.99907834 21.8331989,9.44162826 21.5138441,8.90752688 C20.8233871,7.7546851 19.7780914,6.01228879 19.75,5.42857143 C19.75,3.93133641 20.984543,2.71428571 22.5,2.71428571" id="Fill-9"></path>
        </g>
        <g id="Group" transform="translate(8.000000, 5.000000)" fill="#646464">
            <path d="M34.5,46 L10.5,46 C4.701,46 0,41.0751429 0,35 L45,35 C45,41.0751429 40.299,46 34.5,46" id="Fill-1"></path>
            <path d="M27,31 L18,31 C13.0305,31 9,26.9695 9,22 L36,22 C36,26.9695 31.9695,31 27,31" id="Fill-3"></path>
            <path d="M37.2050081,8 C36.7759429,8 36.326446,8.02933333 35.8565174,8.08946667 C30.4727706,8.78026667 25,13.544 25,19 C26.8082034,16.2734667 28.4733851,15.3641333 30.0364083,15.3641333 C33.1624549,15.3641333 35.8871649,19 38.572471,19 C41.2869652,19 44,16.2734667 44,13.544 C44,11.1768 41.7350027,8 37.2050081,8 M37.2050081,10.728 C40.0902527,10.728 41.2869652,12.5628 41.2869652,13.544 C41.2869652,14.7686667 39.7896152,16.2734667 38.572471,16.2734667 C38.079192,16.2734667 36.9335586,15.5328 36.1002381,14.9930667 C34.7984484,14.1497333 33.238344,13.1406667 31.4228435,12.7754667 C32.8720332,11.7238667 34.5751594,11.0037333 36.2023965,10.794 C36.5511944,10.75 36.8853983,10.728 37.2050081,10.728" id="Fill-5"></path>
            <path d="M6.79645134,8 C2.26499731,8 0,11.1768 0,13.544 C0,16.2734667 2.7144942,19 5.4289884,19 C8.11283509,19 10.8390045,15.3641333 13.9635917,15.3641333 C15.5266149,15.3641333 17.1917966,16.2734667 19,19 C19,13.544 13.5272294,8.78026667 8.1434826,8.08946667 C7.67355404,8.02933333 7.22405715,8 6.79645134,8 M6.79645134,10.728 L6.79645134,10.728 C7.11606114,10.728 7.44880559,10.75 7.79906291,10.794 C9.42484062,11.0037333 11.1279668,11.7238667 12.5786159,12.7754667 C10.761656,13.1406667 9.20155158,14.1497333 7.90122129,14.9930667 C7.06498195,15.5328 5.92080805,16.2734667 5.4289884,16.2734667 C4.21184423,16.2734667 2.7144942,14.7686667 2.7144942,13.544 C2.7144942,12.5628 3.9112067,10.728 6.79645134,10.728" id="Fill-7"></path>
            <path d="M22.5,0 C19.4616935,0 17,2.4311828 17,5.42857143 C17,8.42596006 22.5,13.5714286 22.5,19 C22.5,13.5714286 28,8.42596006 28,5.42857143 C28,2.4311828 25.5383065,0 22.5,0 M22.5,2.71428571 C24.0169355,2.71428571 25.25,3.93133641 25.25,5.42273425 C25.2219086,6.01228879 24.1780914,7.7546851 23.4861559,8.90752688 C23.1668011,9.44162826 22.8326613,9.99907834 22.5,10.5813364 C22.1673387,9.99907834 21.8331989,9.44162826 21.5138441,8.90752688 C20.8233871,7.7546851 19.7780914,6.01228879 19.75,5.42857143 C19.75,3.93133641 20.984543,2.71428571 22.5,2.71428571" id="Fill-9"></path>
        </g>
    </g>
</svg>