<?xml version="1.0" encoding="UTF-8"?>
<svg width="92px" height="92px" viewBox="0 0 92 92" version="1.1" xmlns="http://www.w3.org/2000/svg" xmlns:xlink="http://www.w3.org/1999/xlink">
    <title>poi_cars</title>
    <g id="Page-1" stroke="none" stroke-width="1" fill="none" fill-rule="evenodd">
        <g id="Artboard" transform="translate(-1188.000000, -490.000000)">
            <g id="poi_cars" transform="translate(1188.000000, 490.000000)">
                <circle id="Oval-Shadow-1" fill-opacity="0.02" fill="#000000" cx="46" cy="46" r="46"></circle>
                <circle id="Oval-Shadow-2" fill-opacity="0.02" fill="#000000" cx="46" cy="46" r="44"></circle>
                <circle id="Oval-Shadow-3" fill-opacity="0.02" fill="#000000" cx="46" cy="46" r="42"></circle>
                <circle id="Oval-Shadow-4" fill-opacity="0.02" fill="#000000" cx="46" cy="46" r="40"></circle>
                <path d="M46,84 C66.9868,84 84,66.9868 84,46 C84,25.0132 66.9868,8 46,8 C25.0132,8 8,25.0132 8,46 C8,66.9868 25.0132,84 46,84 Z" id="Path" fill="#FFFFFF" fill-rule="nonzero"></path>
                <path d="M61.5936,41 L58.7636,30.3875 C55.8947,29.8171 50.9047,29 46,29 C41.0953,29 36.1053,29.8171 33.2364,30.3875 L30.4064,41 L61.5936,41 Z M26,42 L24,45 L24,61 L24,65 L28,65 C30.2091,65 32,63.2091 32,61 L32,59 L36,59 L56,59 L60,59 L60,61 C60,63.2091 61.7909,65 64,65 L68,65 L68,61 L68,45 L66,42 L62.6075,29.2781 C62.2326,27.8724 61.1274,26.7824 59.7011,26.4958 C56.7529,25.9033 51.3765,25 46,25 C40.6235,25 35.2471,25.9033 32.2989,26.4958 C30.8726,26.7824 29.7674,27.8724 29.3925,29.2781 L26,42 Z M22,44 L24,41 L24.5,39 L20,39 C18.8954,39 18,39.8954 18,41 L18,41.4384 C18,42.3562 18.6246,43.1561 19.5149,43.3787 L22,44 Z M68,41 L70,44 L72.4851,43.3787 C73.3754,43.1561 74,42.3562 74,41.4384 L74,41 C74,39.8954 73.1046,39 72,39 L67.5,39 L68,41 Z M30,47 L36,47 C37.1046,47 38,47.8954 38,49 L38,51 L32,51 C30.8954,51 30,50.1046 30,49 L30,47 Z M56,47 L62,47 L62,49 C62,50.1046 61.1046,51 60,51 L54,51 L54,49 C54,47.8954 54.8954,47 56,47 Z" id="Shape" fill="#72B8EB"></path>
            </g>
        </g>
    </g>
</svg>