<svg width="92" height="92" viewBox="0 0 92 92" fill="none" xmlns="http://www.w3.org/2000/svg">
<g filter="url(#filter0_d_1904_776)">
<path d="M46 84C66.9868 84 84 66.9868 84 46C84 25.0132 66.9868 8 46 8C25.0132 8 8 25.0132 8 46C8 66.9868 25.0132 84 46 84Z" fill="#F28B3D"/>
</g>
<path fill-rule="evenodd" clip-rule="evenodd" d="M45 16H56L54 19L56 22H47V26C50.4936 32.9872 65.4297 39.9744 71.8205 42.9641C72.7468 43.3974 73.4936 43.7468 74 44V48C74 50.2091 72.2091 52 70 52C67.7909 52 66 50.2091 66 48C66 50.2091 64.2091 52 62 52C59.7909 52 58 50.2091 58 48C58 50.2091 56.2091 52 54 52C51.7909 52 50 50.2091 50 48C50 50.2091 48.2091 52 46 52C43.7909 52 42 50.2091 42 48C42 50.2091 40.2091 52 38 52C35.7909 52 34 50.2091 34 48C34 50.2091 32.2091 52 30 52C27.7909 52 26 50.2091 26 48C26 50.2091 24.2091 52 22 52C19.7909 52 18 50.2091 18 48V44C18.5064 43.7468 19.2532 43.3974 20.1795 42.9641C26.5703 39.9744 41.5064 32.9872 45 26V16ZM22 55C23.4872 55 24.8662 54.5362 26 53.7453C27.1338 54.5362 28.5128 55 30 55C31.4872 55 32.8662 54.5362 34 53.7453C35.1338 54.5362 36.5128 55 38 55C39.4872 55 40.8662 54.5362 42 53.7453C43.1338 54.5362 44.5128 55 46 55C47.4872 55 48.8662 54.5362 50 53.7453C51.1338 54.5362 52.5128 55 54 55C55.4872 55 56.8662 54.5362 58 53.7453C59.1338 54.5362 60.5128 55 62 55C63.4872 55 64.8662 54.5362 66 53.7453C67.1338 54.5362 68.5128 55 70 55C70.2351 55 70.4675 54.9884 70.6966 54.9658L72 68H52V65C52 61.6863 49.3137 59 46 59C42.6863 59 40 61.6863 40 65V68H20L21.3034 54.9658C21.5325 54.9884 21.7649 55 22 55Z" fill="white"/>
<defs>
<filter id="filter0_d_1904_776" x="1" y="1" width="90" height="90" filterUnits="userSpaceOnUse" color-interpolation-filters="sRGB">
<feFlood flood-opacity="0" result="BackgroundImageFix"/>
<feColorMatrix in="SourceAlpha" type="matrix" values="0 0 0 0 0 0 0 0 0 0 0 0 0 0 0 0 0 0 127 0" result="hardAlpha"/>
<feOffset/>
<feGaussianBlur stdDeviation="3.5"/>
<feColorMatrix type="matrix" values="0 0 0 0 0 0 0 0 0 0 0 0 0 0 0 0 0 0 0.15 0"/>
<feBlend mode="normal" in2="BackgroundImageFix" result="effect1_dropShadow_1904_776"/>
<feBlend mode="normal" in="SourceGraphic" in2="effect1_dropShadow_1904_776" result="shape"/>
</filter>
</defs>
</svg>
