<svg width="92" height="92" viewBox="0 0 92 92" fill="none" xmlns="http://www.w3.org/2000/svg">
<g filter="url(#filter0_d_1904_599)">
<path d="M46 84C66.9868 84 84 66.9868 84 46C84 25.0132 66.9868 8 46 8C25.0132 8 8 25.0132 8 46C8 66.9868 25.0132 84 46 84Z" fill="white"/>
</g>
<path fill-rule="evenodd" clip-rule="evenodd" d="M49 36C49 34.4999 49.8733 32.232 51.6055 29.8622C53.2979 27.547 55.4542 25.627 57.3416 24.6833L54.6584 19.3167C51.7021 20.7949 48.8584 23.453 46.7617 26.3214C44.7049 29.1352 43 32.6563 43 36V36.0228V36.0457V36.0687V36.0919V36.1153V36.1388V36.1624V36.1861V36.21V36.2341V36.2582V36.2825V36.307V36.3315V36.3563V36.3811V36.4061V36.4312V36.4564V36.4818V36.5073V36.5329V36.5587V36.5846V36.6106V36.6368V36.6631V36.6895V36.716V36.7427V36.7695V36.7964V36.8234V36.8506V36.8779V36.9053V36.9328V36.9604V36.9882V37.0161V37.0441V37.0723V37.1005V37.1289V37.1574V37.186V37.2147V37.2436V37.2725V37.3016V37.3308V37.3601V37.3895V37.419V37.4487V37.4784V37.5083V37.5383V37.5683V37.5985V37.6289V37.6593V37.6898V37.7204V37.7512V37.782V37.8129V37.844V37.8752V37.9064V37.9378V37.9693V38.0008V38.0325V38.0643V38.0962V38.1282V38.1602V38.1924V38.2247V38.2571V38.2895V38.3221V38.3548V38.3876V38.4204V38.4534V38.4864V38.5196V38.5528V38.5725C41.6981 37.062 40.1137 35.6719 38.1894 34.5041C35.8692 33.0962 33.13 32.0571 29.9163 31.4902C28.419 31.1729 26.7821 31 25 31H24.0495L24 31V31H20C20 41.9286 27.8965 52.8572 42.7087 52.9986C42.9824 55.0705 43 56.8643 43 58V74H49V67.9821C60.7554 67.5621 72 59.7758 72 48H67C57.2334 48 51.2327 52.003 48.9964 57.1663C48.9876 56.3337 48.957 55.2508 48.8513 54H49V53.9763V53.9524V53.9284V53.9043V53.88V53.8556V53.8311V53.8064V53.7816V53.7566V53.7316V53.7064V53.681V53.6556V53.63V53.6042V53.5784V53.5524V53.5262V53.5V53.4736V53.4471V53.4205V53.3937V53.3669V53.3399V53.3127V53.2855V53.2581V53.2306V53.203V53.1752V53.1474V53.1194V53.0913V53.0631V53.0347V53.0063V52.9777V52.949V52.9202V52.8912V52.8622V52.833V52.8038V52.7744V52.7449V52.7153V52.6855V52.6557V52.6258V52.5957V52.5655V52.5353V52.5049V52.4744V52.4438V52.4131V52.3823V52.3513V52.3203V52.2892V52.2579V52.2266V52.1951V52.1636V52.1319V52.1002V52.0683V52.0364V52.0043V51.9722V51.9399V51.9076V51.8751V51.8426V51.8099V51.7772V51.7444V51.7114V51.6784V51.6453V51.6121V51.5788V51.5454V51.5119V51.4783V51.4446V51.4109V51.377V51.3431V51.309V51.2749V51.2407V51.2064V51.172V51.1376V51.103V51.0684V51.0337V50.9989V50.964V50.929V50.894V50.8588V50.8236V50.7883V50.7529V50.7175V50.682V50.6463V50.6107V50.5749V50.5391V50.5031V50.4671V50.4311V50.3949V50.3587V50.3224V50.2861V50.2496V50.2131V50.1765V50.1399V50.1032V50.0664V50.0295V49.9926V49.9556V49.9186V49.8814V49.8442V49.807V49.7697V49.7323V49.6948V49.6573V49.6197V49.5821V49.5444V49.5066V49.4688V49.4309V49.393V49.355V49.3169V49.2788V49.2406V49.2024V49.1641V49.1258V49.0874V49.0489V49.0104V48.9718V48.9332V48.8946V48.8558V48.8171V48.7782V48.7394V48.7004V48.6615V48.6225V48.5834V48.5443V48.5051V48.4659V48.4267V48.3874V48.348V48.3086V48.2692V48.2297V48.1902V48.1506V48.111V48.0714V48.0317V47.992V47.9522V47.9124V47.8726V47.8327V47.7928V47.7529V47.7129V47.6728V47.6328V47.5927V47.5526V47.5124V47.4722V47.432V47.3918V47.3515V47.3112V47.2708V47.2304V47.19V47.1496V47.1091V47.0687V47.0281V46.9876V46.947V46.9064V46.8658V46.8252V46.7845V46.7438V46.7031V46.6624V46.6217V46.5809V46.5401V46.4993V46.4585V46.4176V46.3767V46.3359V46.295V46.254V46.2131V46.1722V46.1312V46.0902V46.0492V46.0082V45.9672V45.9262V45.8852V45.8441V45.8031V45.762V45.7209V45.6798V45.6387V45.5976V45.5565V45.5154V45.4743V45.4332V45.392V45.3509V45.3098V45.2686V45.2275V45.1863V45.1452V45.104V45.0629V45.0217V44.9806V44.9394V44.8983V44.8572V44.816V44.7749V44.7338V44.6926V44.6515V44.6104V44.5693V44.5282V44.4871V44.446V44.4049V44.3638V44.3228V44.2817V44.2407V44.1997V44.1586V44.1176V44.0766V44.0357V43.9947V43.9538V43.9128V43.8719V43.831V43.7901V43.7492V43.7084V43.6675V43.6267V43.5859V43.5452V43.5044V43.4637V43.423V43.3823V43.3416V43.301V43.2603V43.2197V43.1792V43.1386V43.0981V43.0576V43.0171V42.9767V42.9363V42.8959V42.8556V42.8152V42.7749V42.7347V42.6945V42.6543V42.6141V42.574V42.5339V42.4938V42.4538V42.4138V42.3738V42.3339V42.294V42.2541V42.2143V42.1746V42.1348V42.0951V42.0555V42.0159V41.9763V41.9368V41.8973V41.8579V41.8185V41.7791V41.7398V41.7005V41.6613V41.6221V41.583V41.5439V41.5049V41.4659V41.427V41.3881V41.3493V41.3105V41.2717V41.2331V41.1944V41.1558V41.1173V41.0789V41.0404V41.0021V40.9638V40.9255V40.8873V40.8492V40.8111V40.7731V40.7352V40.6973V40.6594V40.6216V40.5839V40.5463V40.5087V40.4711V40.4337V40.3963V40.3589V40.3217V40.2845V40.2473V40.2102V40.1732V40.1363V40.0994V40.0626V40.0259V39.9892V39.9526V39.9161V39.8796V39.8432V39.8069V39.7707V39.7345V39.6985V39.6624V39.6265V39.5906V39.5549V39.5191V39.4835V39.448V39.4125V39.3771V39.3418V39.3065V39.2714V39.2363V39.2013V39.1664V39.1316V39.0969V39.0622V39.0276V38.9931V38.9587V38.9244V38.8902V38.8561V38.822V38.788V38.7542V38.7204V38.6867V38.6531V38.6196V38.5861V38.5528V38.5196V38.4864V38.4534V38.4204V38.3876V38.3548V38.3221V38.2895V38.2571V38.2247V38.1924V38.1602V38.1282V38.0962V38.0643V38.0325V38.0008V37.9693V37.9378V37.9064V37.8752V37.844V37.8129V37.782V37.7512V37.7204V37.6898V37.6593V37.6289V37.5985V37.5683V37.5383V37.5083V37.4784V37.4487V37.419V37.3895V37.3601V37.3308V37.3016V37.2725V37.2436V37.2147V37.186V37.1574V37.1289V37.1005V37.0723V37.0441V37.0161V36.9882V36.9604V36.9328V36.9053V36.8779V36.8506V36.8234V36.7964V36.7695V36.7427V36.716V36.6895V36.6631V36.6368V36.6106V36.5846V36.5587V36.5329V36.5073V36.4818V36.4564V36.4312V36.4061V36.3811V36.3563V36.3315V36.307V36.2825V36.2582V36.2341V36.21V36.1861V36.1624V36.1388V36.1153V36.0919V36.0687V36.0457V36.0228V36Z" fill="#6DC234"/>
<defs>
<filter id="filter0_d_1904_599" x="1" y="1" width="90" height="90" filterUnits="userSpaceOnUse" color-interpolation-filters="sRGB">
<feFlood flood-opacity="0" result="BackgroundImageFix"/>
<feColorMatrix in="SourceAlpha" type="matrix" values="0 0 0 0 0 0 0 0 0 0 0 0 0 0 0 0 0 0 127 0" result="hardAlpha"/>
<feOffset/>
<feGaussianBlur stdDeviation="3.5"/>
<feColorMatrix type="matrix" values="0 0 0 0 0 0 0 0 0 0 0 0 0 0 0 0 0 0 0.15 0"/>
<feBlend mode="normal" in2="BackgroundImageFix" result="effect1_dropShadow_1904_599"/>
<feBlend mode="normal" in="SourceGraphic" in2="effect1_dropShadow_1904_599" result="shape"/>
</filter>
</defs>
</svg>
