<?xml version="1.0" encoding="UTF-8"?>
<svg width="68px" height="68px" viewBox="0 0 68 68" version="1.1" xmlns="http://www.w3.org/2000/svg" xmlns:xlink="http://www.w3.org/1999/xlink">
    <title>poi_parking_meter_i</title>
    <g id="Page-1" stroke="none" stroke-width="1" fill="none" fill-rule="evenodd">
        <g id="Artboard" transform="translate(-676.000000, -515.000000)">
            <g id="poi_parking_meter_i" transform="translate(676.000000, 515.000000)">
                <circle id="Oval-Shadow-1" fill-opacity="0.02" fill="#000000" cx="34" cy="34" r="34"></circle>
                <circle id="Oval-Shadow-2" fill-opacity="0.02" fill="#000000" cx="34" cy="34" r="32"></circle>
                <circle id="Oval-Shadow-3" fill-opacity="0.02" fill="#000000" cx="34" cy="34" r="30"></circle>
                <circle id="Oval-Shadow-4" fill-opacity="0.02" fill="#000000" cx="34" cy="34" r="28"></circle>
                <path d="M34,60 C48.3594,60 60,48.3594 60,34 C60,19.6406 48.3594,8 34,8 C19.6406,8 8,19.6406 8,34 C8,48.3594 19.6406,60 34,60 Z" id="Path" fill="#72B8EB" fill-rule="nonzero"></path>
                <path d="M25,22 C25,20.8954 25.8954,20 27,20 L41,20 C42.1046,20 43,20.8954 43,22 L43,46 C43,47.1046 42.1046,48 41,48 L39,48 L39,44 L39.5,44 C40.3285,44 41,43.3284 41,42.5 C41,41.6716 40.3285,41 39.5,41 L28.5,41 C27.6716,41 27,41.6716 27,42.5 C27,43.3284 27.6716,44 28.5,44 L29,44 L29,48 L27,48 C25.8954,48 25,47.1046 25,46 L25,22 Z M30,24 L35.5,24 C37.7092,24 39.5,25.7909 39.5,28 C39.5,30.2091 37.7092,32 35.5,32 L32.5,32 L32.5,36 L30,36 L30,24 Z M35.538,26.5 L32.5,26.5 L32.5,29.5 L35.538,29.5 C36.3514,29.5 37.0166,28.8516 37.0375,28.0385 C37.0591,27.1952 36.3815,26.5 35.538,26.5 Z M37,43 L31,43 L31,50 L37,50 L37,43 Z" id="Shape" fill="#FFFFFF"></path>
            </g>
        </g>
    </g>
</svg>