<svg width="92" height="92" viewBox="0 0 92 92" fill="none" xmlns="http://www.w3.org/2000/svg">
<g filter="url(#filter0_d_2192_362)">
<path d="M46 84C66.9868 84 84 66.9868 84 46C84 25.0132 66.9868 8 46 8C25.0132 8 8 25.0132 8 46C8 66.9868 25.0132 84 46 84Z" fill="#72B8EB"/>
</g>
<path fill-rule="evenodd" clip-rule="evenodd" d="M52 24H28V68H64V36H52V24ZM56 40H36V44H56V40ZM36 48H48V52H36V48ZM55 63C57.2091 63 59 61.2091 59 59C59 56.7909 57.2091 55 55 55C52.7909 55 51 56.7909 51 59C51 61.2091 52.7909 63 55 63Z" fill="white"/>
<path d="M64 32H56V24L64 32Z" fill="white"/>
<defs>
<filter id="filter0_d_2192_362" x="1" y="1" width="90" height="90" filterUnits="userSpaceOnUse" color-interpolation-filters="sRGB">
<feFlood flood-opacity="0" result="BackgroundImageFix"/>
<feColorMatrix in="SourceAlpha" type="matrix" values="0 0 0 0 0 0 0 0 0 0 0 0 0 0 0 0 0 0 127 0" result="hardAlpha"/>
<feOffset/>
<feGaussianBlur stdDeviation="3.5"/>
<feColorMatrix type="matrix" values="0 0 0 0 0 0 0 0 0 0 0 0 0 0 0 0 0 0 0.15 0"/>
<feBlend mode="normal" in2="BackgroundImageFix" result="effect1_dropShadow_2192_362"/>
<feBlend mode="normal" in="SourceGraphic" in2="effect1_dropShadow_2192_362" result="shape"/>
</filter>
</defs>
</svg>
