<?xml version="1.0" encoding="UTF-8"?>
<svg width="60px" height="60px" viewBox="0 0 60 60" version="1.1" xmlns="http://www.w3.org/2000/svg" xmlns:xlink="http://www.w3.org/1999/xlink">
    <title>poi_street_art_7</title>
    <g id="poi_street_art_7" stroke="none" stroke-width="1" fill="none" fill-rule="evenodd">
        <g id="Group" transform="translate(13.000000, 4.000000)" stroke="#FFFFFF" stroke-width="5">
            <path d="M11,20 L6,20 L6,17 C6,15.344 7.12,14 8.5,14 C9.88,14 11,15.344 11,17 L11,20 Z" id="Fill-1"></path>
            <path d="M11.3333333,23.0007921 L5.66666667,23.0007921 C2.53725,22.9467993 0,25.659941 0,29 L17,29 C17,25.659941 14.46275,22.9467993 11.3333333,23.0007921" id="Fill-3"></path>
            <polygon id="Stroke-5" fill-rule="nonzero" points="26.2559414 14 23 10.7440586 33.7440586 0 37 3.25594143"></polygon>
            <polygon id="Stroke-7" fill-rule="nonzero" points="23 29.2559414 26.2559414 26 37 36.7440586 33.7440586 40"></polygon>
            <polygon id="Stroke-9" fill-rule="nonzero" points="24 22 24 18 40 18 40 22"></polygon>
            <path d="M14.1666667,53 L2.83333333,53 C1.26933333,53 0,51.7456 0,50.2 L0,32 L17,32 L17,50.2 C17,51.7456 15.7306667,53 14.1666667,53" id="Fill-11"></path>
        </g>
        <g id="Group" transform="translate(13.000000, 4.000000)" fill="#646464">
            <path d="M11,20 L6,20 L6,17 C6,15.344 7.12,14 8.5,14 C9.88,14 11,15.344 11,17 L11,20 Z" id="Fill-1"></path>
            <path d="M11.3333333,23.0007921 L5.66666667,23.0007921 C2.53725,22.9467993 0,25.659941 0,29 L17,29 C17,25.659941 14.46275,22.9467993 11.3333333,23.0007921" id="Fill-3"></path>
            <polygon id="Stroke-5" fill-rule="nonzero" points="26.2559414 14 23 10.7440586 33.7440586 0 37 3.25594143"></polygon>
            <polygon id="Stroke-7" fill-rule="nonzero" points="23 29.2559414 26.2559414 26 37 36.7440586 33.7440586 40"></polygon>
            <polygon id="Stroke-9" fill-rule="nonzero" points="24 22 24 18 40 18 40 22"></polygon>
            <path d="M14.1666667,53 L2.83333333,53 C1.26933333,53 0,51.7456 0,50.2 L0,32 L17,32 L17,50.2 C17,51.7456 15.7306667,53 14.1666667,53" id="Fill-11"></path>
        </g>
    </g>
</svg>