<svg width="92" height="92" viewBox="0 0 92 92" fill="none" xmlns="http://www.w3.org/2000/svg">
<g filter="url(#filter0_d_624_2313)">
<path d="M46 84C66.9868 84 84 66.9868 84 46C84 25.0132 66.9868 8 46 8C25.0132 8 8 25.0132 8 46C8 66.9868 25.0132 84 46 84Z" fill="#72B8EB"/>
</g>
<path fill-rule="evenodd" clip-rule="evenodd" d="M30 24C30 21.7909 31.7909 20 34 20H58C60.2091 20 62 21.7909 62 24V68C62 70.2091 60.2091 72 58 72H34C31.7909 72 30 70.2091 30 68V24ZM58 43.2792C58 43.7097 57.7246 44.0918 57.3162 44.2279L35.3162 51.5613C34.6687 51.7771 34 51.2951 34 50.6126V25C34 24.4477 34.4477 24 35 24H39L39.5442 25.6325C39.8164 26.4491 40.5807 27 41.4415 27H50.5585C51.4193 27 52.1836 26.4491 52.4558 25.6325L53 24H57C57.5523 24 58 24.4477 58 25V43.2792Z" fill="white"/>
<defs>
<filter id="filter0_d_624_2313" x="1" y="1" width="90" height="90" filterUnits="userSpaceOnUse" color-interpolation-filters="sRGB">
<feFlood flood-opacity="0" result="BackgroundImageFix"/>
<feColorMatrix in="SourceAlpha" type="matrix" values="0 0 0 0 0 0 0 0 0 0 0 0 0 0 0 0 0 0 127 0" result="hardAlpha"/>
<feOffset/>
<feGaussianBlur stdDeviation="3.5"/>
<feColorMatrix type="matrix" values="0 0 0 0 0 0 0 0 0 0 0 0 0 0 0 0 0 0 0.15 0"/>
<feBlend mode="normal" in2="BackgroundImageFix" result="effect1_dropShadow_624_2313"/>
<feBlend mode="normal" in="SourceGraphic" in2="effect1_dropShadow_624_2313" result="shape"/>
</filter>
</defs>
</svg>
