<?xml version="1.0" encoding="UTF-8"?>
<svg width="60px" height="60px" viewBox="0 0 60 60" version="1.1" xmlns="http://www.w3.org/2000/svg" xmlns:xlink="http://www.w3.org/1999/xlink">
    <title>poi_shower_7</title>
    <g id="poi_shower_7" stroke="none" stroke-width="1" fill="none" fill-rule="evenodd">
        <g id="Group" transform="translate(6.000000, 3.000000)" stroke="#FFFFFF" stroke-width="6">
            <path d="M20.4230769,15 C15.4783333,15 11,20.1685417 11,25 L46,25 C46,20.1685417 41.5216667,15 36.5769231,15 L20.4230769,15 Z" id="Fill-1"></path>
            <polygon id="Fill-3" points="11 35 46 35 46 30 11 30"></polygon>
            <polygon id="Fill-5" points="11 44 16 44 16 39 11 39"></polygon>
            <polygon id="Fill-6" points="21 44 26 44 26 39 21 39"></polygon>
            <polygon id="Fill-7" points="31 44 36 44 36 39 31 39"></polygon>
            <polygon id="Fill-8" points="11 53 16 53 16 48 11 48"></polygon>
            <polygon id="Fill-9" points="21 53 26 53 26 48 21 48"></polygon>
            <polygon id="Fill-10" points="31 53 36 53 36 48 31 48"></polygon>
            <polygon id="Fill-11" points="41 44 46 44 46 39 41 39"></polygon>
            <polygon id="Fill-12" points="41 53 46 53 46 48 41 48"></polygon>
            <path d="M4.96,50.5348837 L4.96,50.5348837 L4.96,14.7906977 C4.65,9.29771429 9.51855,4.54285714 16.12,4.93023256 C21.48145,4.54285714 26.35,9.29771429 26.04,14.7906977 L26.04,17.255814 L31,17.255814 L31,14.7906977 C31,6.77945714 24.0591,0 16.12,0 C6.9409,0 0,6.77945714 0,14.7906977 L0,53 L4.96,53 L4.96,50.5348837 Z" id="Fill-13"></path>
        </g>
        <g id="Group" transform="translate(6.000000, 3.000000)" fill="#646464">
            <path d="M20.4230769,15 C15.4783333,15 11,20.1685417 11,25 L46,25 C46,20.1685417 41.5216667,15 36.5769231,15 L20.4230769,15 Z" id="Fill-1"></path>
            <polygon id="Fill-3" points="11 35 46 35 46 30 11 30"></polygon>
            <polygon id="Fill-5" points="11 44 16 44 16 39 11 39"></polygon>
            <polygon id="Fill-6" points="21 44 26 44 26 39 21 39"></polygon>
            <polygon id="Fill-7" points="31 44 36 44 36 39 31 39"></polygon>
            <polygon id="Fill-8" points="11 53 16 53 16 48 11 48"></polygon>
            <polygon id="Fill-9" points="21 53 26 53 26 48 21 48"></polygon>
            <polygon id="Fill-10" points="31 53 36 53 36 48 31 48"></polygon>
            <polygon id="Fill-11" points="41 44 46 44 46 39 41 39"></polygon>
            <polygon id="Fill-12" points="41 53 46 53 46 48 41 48"></polygon>
            <path d="M4.96,50.5348837 L4.96,50.5348837 L4.96,14.7906977 C4.65,9.29771429 9.51855,4.54285714 16.12,4.93023256 C21.48145,4.54285714 26.35,9.29771429 26.04,14.7906977 L26.04,17.255814 L31,17.255814 L31,14.7906977 C31,6.77945714 24.0591,0 16.12,0 C6.9409,0 0,6.77945714 0,14.7906977 L0,53 L4.96,53 L4.96,50.5348837 Z" id="Fill-13"></path>
        </g>
    </g>
</svg>