<svg width="92" height="92" viewBox="0 0 92 92" fill="none" xmlns="http://www.w3.org/2000/svg">
<g filter="url(#filter0_d_3328_485)">
<path d="M46 84C66.9868 84 84 66.9868 84 46C84 25.0132 66.9868 8 46 8C25.0132 8 8 25.0132 8 46C8 66.9868 25.0132 84 46 84Z" fill="white"/>
</g>
<path fill-rule="evenodd" clip-rule="evenodd" d="M40 30C40 26.6863 42.6863 24 46 24C49.3137 24 52 26.6863 52 30V32H40V30ZM36 32H26V64C26 66.2091 27.7909 68 30 68H62C64.2091 68 66 66.2091 66 64V32H56V30C56 24.4772 51.5228 20 46 20C40.4772 20 36 24.4772 36 30V32Z" fill="#6DC234"/>
<defs>
<filter id="filter0_d_3328_485" x="1" y="1" width="90" height="90" filterUnits="userSpaceOnUse" color-interpolation-filters="sRGB">
<feFlood flood-opacity="0" result="BackgroundImageFix"/>
<feColorMatrix in="SourceAlpha" type="matrix" values="0 0 0 0 0 0 0 0 0 0 0 0 0 0 0 0 0 0 127 0" result="hardAlpha"/>
<feOffset/>
<feGaussianBlur stdDeviation="3.5"/>
<feColorMatrix type="matrix" values="0 0 0 0 0 0 0 0 0 0 0 0 0 0 0 0 0 0 0.15 0"/>
<feBlend mode="normal" in2="BackgroundImageFix" result="effect1_dropShadow_3328_485"/>
<feBlend mode="normal" in="SourceGraphic" in2="effect1_dropShadow_3328_485" result="shape"/>
</filter>
</defs>
</svg>
