<?xml version="1.0" encoding="UTF-8"?>
<svg width="92px" height="92px" viewBox="0 0 92 92" version="1.1" xmlns="http://www.w3.org/2000/svg" xmlns:xlink="http://www.w3.org/1999/xlink">
    <title>poi_charity_box_i</title>
    <g id="Page-1" stroke="none" stroke-width="1" fill="none" fill-rule="evenodd">
        <g id="Artboard" transform="translate(-1096.000000, -665.000000)">
            <g id="poi_charity_box_i" transform="translate(1096.000000, 665.000000)">
                <circle id="Oval-Shadow-1" fill-opacity="0.02" fill="#000000" cx="46" cy="46" r="46"></circle>
                <circle id="Oval-Shadow-2" fill-opacity="0.02" fill="#000000" cx="46" cy="46" r="44"></circle>
                <circle id="Oval-Shadow-3" fill-opacity="0.02" fill="#000000" cx="46" cy="46" r="42"></circle>
                <circle id="Oval-Shadow-4" fill-opacity="0.02" fill="#000000" cx="46" cy="46" r="40"></circle>
                <path d="M46,84 C66.9868,84 84,66.9868 84,46 C84,25.0132 66.9868,8 46,8 C25.0132,8 8,25.0132 8,46 C8,66.9868 25.0132,84 46,84 Z" id="Path" fill="#EB7967" fill-rule="nonzero"></path>
                <path d="M26,32 L66,32 L62.5029,23.2572 C62.1992,22.4979 61.4637,22 60.6459,22 L31.3541,22 C30.5363,22 29.8008,22.4979 29.4971,23.2572 L26,32 Z M26,66 C26,67.1046 26.8954,68 28,68 L64,68 C65.1046,68 66,67.1046 66,66 L66,36 L26,36 L26,66 Z M38,27 C38,26.4477 38.4477,26 39,26 L53,26 C53.5523,26 54,26.4477 54,27 C54,27.5523 53.5523,28 53,28 L39,28 C38.4477,28 38,27.5523 38,27 Z M46,63 L36.4504,55.042 C34.8977,53.7481 34,51.8314 34,49.8102 L34,49.1803 C34,45.767 36.767,43 40.1803,43 C42.5213,43 44.6613,44.3226 45.7082,46.4164 L46,47 L46.2918,46.4164 C47.3387,44.3226 49.4787,43 51.8197,43 C55.233,43 58,45.767 58,49.1803 L58,49.8102 C58,51.8314 57.1023,53.7481 55.5496,55.042 L46,63 Z" id="Shape" fill="#FFFFFF"></path>
            </g>
        </g>
    </g>
</svg>