<svg width="92" height="92" viewBox="0 0 92 92" fill="none" xmlns="http://www.w3.org/2000/svg">
<g filter="url(#filter0_d_1472_276)">
<path d="M46 84C66.9868 84 84 66.9868 84 46C84 25.0132 66.9868 8 46 8C25.0132 8 8 25.0132 8 46C8 66.9868 25.0132 84 46 84Z" fill="#6DC234"/>
</g>
<path fill-rule="evenodd" clip-rule="evenodd" d="M24 28C24 25.7909 25.7909 24 28 24H60C62.2091 24 64 25.7909 64 28V37C64 39.2091 62.2091 41 60 41H28C25.7909 41 24 39.2091 24 37V28ZM68 37V29H72V37C72 43.6274 66.6274 49 60 49H46V57H47C48.1046 57 49 57.8954 49 59V72C49 74.2091 47.2091 76 45 76H43C40.7909 76 39 74.2091 39 72V59C39 57.8954 39.8954 57 41 57H42V49C42 46.7909 43.7909 45 46 45H60C64.4183 45 68 41.4183 68 37Z" fill="white"/>
<defs>
<filter id="filter0_d_1472_276" x="1" y="1" width="90" height="90" filterUnits="userSpaceOnUse" color-interpolation-filters="sRGB">
<feFlood flood-opacity="0" result="BackgroundImageFix"/>
<feColorMatrix in="SourceAlpha" type="matrix" values="0 0 0 0 0 0 0 0 0 0 0 0 0 0 0 0 0 0 127 0" result="hardAlpha"/>
<feOffset/>
<feGaussianBlur stdDeviation="3.5"/>
<feColorMatrix type="matrix" values="0 0 0 0 0 0 0 0 0 0 0 0 0 0 0 0 0 0 0.15 0"/>
<feBlend mode="normal" in2="BackgroundImageFix" result="effect1_dropShadow_1472_276"/>
<feBlend mode="normal" in="SourceGraphic" in2="effect1_dropShadow_1472_276" result="shape"/>
</filter>
</defs>
</svg>
