<?xml version="1.0" encoding="UTF-8"?>
<svg width="60px" height="60px" viewBox="0 0 60 60" version="1.1" xmlns="http://www.w3.org/2000/svg" xmlns:xlink="http://www.w3.org/1999/xlink">
    <title>poi_atractions_7</title>
    <g id="poi_atractions_7" stroke="none" stroke-width="1" fill="none" fill-rule="evenodd">
        <g id="Group" transform="translate(9.000000, 6.000000)" stroke="#FFFFFF" stroke-width="5">
            <path d="M41,42 L0,42 L0,45 C0,46.656 1.312,48 2.92857143,48 L38.0714286,48 C39.688,48 41,46.656 41,45 L41,42 Z" id="Fill-1"></path>
            <polygon id="Fill-3" points="0 23 41 23 41 19 0 19"></polygon>
            <path d="M41,12.9925558 C41,12.9925558 28.3851786,10.6617039 20.5,6 C12.6148214,10.6617039 0,12.9925558 0,12.9925558 L0,16 L41,16 L41,12.9925558 Z" id="Fill-5"></path>
            <polygon id="Fill-6" points="18 10 22 10 22 0 18 0"></polygon>
            <polygon id="Fill-7" points="22 4 27 4 27 0 22 0"></polygon>
            <polygon id="Fill-8" points="0 39 5 39 5 26 0 26"></polygon>
            <polygon id="Fill-9" points="9 39 14 39 14 26 9 26"></polygon>
            <polygon id="Fill-10" points="18 39 23 39 23 26 18 26"></polygon>
            <polygon id="Fill-11" points="27 39 32 39 32 26 27 26"></polygon>
            <polygon id="Fill-12" points="36 39 41 39 41 26 36 26"></polygon>
        </g>
        <g id="Group" transform="translate(9.000000, 6.000000)" fill="#646464">
            <path d="M41,42 L0,42 L0,45 C0,46.656 1.312,48 2.92857143,48 L38.0714286,48 C39.688,48 41,46.656 41,45 L41,42 Z" id="Fill-1"></path>
            <polygon id="Fill-3" points="0 23 41 23 41 19 0 19"></polygon>
            <path d="M41,12.9925558 C41,12.9925558 28.3851786,10.6617039 20.5,6 C12.6148214,10.6617039 0,12.9925558 0,12.9925558 L0,16 L41,16 L41,12.9925558 Z" id="Fill-5"></path>
            <polygon id="Fill-6" points="18 10 22 10 22 0 18 0"></polygon>
            <polygon id="Fill-7" points="22 4 27 4 27 0 22 0"></polygon>
            <polygon id="Fill-8" points="0 39 5 39 5 26 0 26"></polygon>
            <polygon id="Fill-9" points="9 39 14 39 14 26 9 26"></polygon>
            <polygon id="Fill-10" points="18 39 23 39 23 26 18 26"></polygon>
            <polygon id="Fill-11" points="27 39 32 39 32 26 27 26"></polygon>
            <polygon id="Fill-12" points="36 39 41 39 41 26 36 26"></polygon>
        </g>
    </g>
</svg>