<svg width="92" height="92" viewBox="0 0 92 92" fill="none" xmlns="http://www.w3.org/2000/svg">
<g filter="url(#filter0_d_1904_309)">
<path d="M46 84C66.9868 84 84 66.9868 84 46C84 25.0132 66.9868 8 46 8C25.0132 8 8 25.0132 8 46C8 66.9868 25.0132 84 46 84Z" fill="white"/>
</g>
<path fill-rule="evenodd" clip-rule="evenodd" d="M42 20H46H50C62.1503 20 72 29.8497 72 42V49.7157C72 55.0201 69.8929 60.1071 66.1421 63.8579L59.6569 70.3431C56.0348 73.9652 51.1223 76 46 76C40.8777 76 35.9652 73.9652 32.3432 70.3432L25.8579 63.8579C22.1071 60.1071 20 55.0201 20 49.7157V42C20 29.8497 29.8497 20 42 20ZM40.0008 31H46H52C57.5229 31 62 35.4772 62 41V43.2721C62 45.659 61.0518 47.9482 59.364 49.636L57 52V55C57 57.2091 55.2091 59 53 59H52H51.2426C50.8448 59 50.4633 58.842 50.182 58.5607L47.8107 56.1893L49.5858 54.4142C49.851 54.149 50 53.7893 50 53.4142C50 52.6332 49.3668 52 48.5858 52H43.4142C42.6332 52 42 52.6332 42 53.4142C42 53.7893 42.149 54.149 42.4142 54.4142L44.1893 56.1893L41.818 58.5607C41.5367 58.842 41.1552 59 40.7574 59H40H39C36.7909 59 35 57.2091 35 55V52L32.636 49.636C30.9482 47.9482 30 45.659 30 43.2721V41C30 35.4772 34.4779 31 40.0008 31ZM40 62C40 64.2091 41.7909 66 44 66H48C50.2091 66 52 64.2091 52 62H51.2426C50.0492 62 48.9046 61.5259 48.0607 60.682L46 58.6213L43.9393 60.682C43.0954 61.5259 41.9508 62 40.7574 62H40ZM36.5 39H40C42.2091 39 44 40.7909 44 43V44C44 45.1046 43.1046 46 42 46C40.8954 46 40 45.1046 40 44H36.5C35.1193 44 34 42.8807 34 41.5C34 40.1193 35.1193 39 36.5 39ZM52 39H55.5C56.8807 39 58 40.1193 58 41.5C58 42.8807 56.8807 44 55.5 44H52C52 45.1046 51.1046 46 50 46C48.8954 46 48 45.1046 48 44V43C48 40.7909 49.7909 39 52 39Z" fill="#F28B3D"/>
<defs>
<filter id="filter0_d_1904_309" x="1" y="1" width="90" height="90" filterUnits="userSpaceOnUse" color-interpolation-filters="sRGB">
<feFlood flood-opacity="0" result="BackgroundImageFix"/>
<feColorMatrix in="SourceAlpha" type="matrix" values="0 0 0 0 0 0 0 0 0 0 0 0 0 0 0 0 0 0 127 0" result="hardAlpha"/>
<feOffset/>
<feGaussianBlur stdDeviation="3.5"/>
<feColorMatrix type="matrix" values="0 0 0 0 0 0 0 0 0 0 0 0 0 0 0 0 0 0 0.15 0"/>
<feBlend mode="normal" in2="BackgroundImageFix" result="effect1_dropShadow_1904_309"/>
<feBlend mode="normal" in="SourceGraphic" in2="effect1_dropShadow_1904_309" result="shape"/>
</filter>
</defs>
</svg>
