<svg width="92" height="92" viewBox="0 0 92 92" fill="none" xmlns="http://www.w3.org/2000/svg">
<g filter="url(#filter0_d_2192_912)">
<path d="M46 84C66.9868 84 84 66.9868 84 46C84 25.0132 66.9868 8 46 8C25.0132 8 8 25.0132 8 46C8 66.9868 25.0132 84 46 84Z" fill="#F28B3D"/>
</g>
<path fill-rule="evenodd" clip-rule="evenodd" d="M47.25 20C47.25 21.3475 47.4844 22.4966 47.7889 23.1056C48.4843 24.4966 48.75 26.3475 48.75 28C48.75 29.6524 48.4844 31.5034 47.7888 32.8945L44.2112 31.1055C44.5157 30.4966 44.75 29.3476 44.75 28C44.75 26.6525 44.5156 25.5034 44.2111 24.8944C43.5157 23.5034 43.25 21.6525 43.25 20C43.25 18.3475 43.5156 16.4966 44.2111 15.1056L47.7889 16.8944C47.4844 17.5034 47.25 18.6525 47.25 20ZM37.4949 24.6713C37.2433 24.3883 37.0001 23.7894 37 23C37 22.2106 37.2432 21.6118 37.4948 21.3287L34.5052 18.6713C33.4234 19.8882 33 21.5394 33 23C33.0001 24.4606 33.4235 26.1117 34.5051 27.3287C34.7567 27.6118 35 28.2107 35 29.0001C35 29.7894 34.7568 30.3882 34.5052 30.6712L37.4947 33.3288C38.5766 32.1118 39 30.4606 39 28.9999C39 27.5393 38.5764 25.8882 37.4949 24.6713ZM40 36H52V64H40V36ZM56 64V36H68L67.4286 40H76V44H66.8571L64 64H56ZM36 36H24L24.5714 40H16V44H25.1429L28 64H36V36ZM64 68H28V72H64V68ZM57.4949 24.6713C57.2433 24.3883 57.0001 23.7894 57 23C57 22.2106 57.2432 21.6118 57.4948 21.3287L54.5052 18.6713C53.4234 19.8882 53 21.5394 53 23C53.0001 24.4606 53.4235 26.1117 54.5051 27.3287C54.7567 27.6118 55 28.2107 55 29.0001C55 29.7894 54.7568 30.3882 54.5052 30.6712L57.4947 33.3288C58.5766 32.1118 59 30.4606 59 28.9999C59 27.5393 58.5764 25.8882 57.4949 24.6713Z" fill="white"/>
<defs>
<filter id="filter0_d_2192_912" x="1" y="1" width="90" height="90" filterUnits="userSpaceOnUse" color-interpolation-filters="sRGB">
<feFlood flood-opacity="0" result="BackgroundImageFix"/>
<feColorMatrix in="SourceAlpha" type="matrix" values="0 0 0 0 0 0 0 0 0 0 0 0 0 0 0 0 0 0 127 0" result="hardAlpha"/>
<feOffset/>
<feGaussianBlur stdDeviation="3.5"/>
<feColorMatrix type="matrix" values="0 0 0 0 0 0 0 0 0 0 0 0 0 0 0 0 0 0 0.15 0"/>
<feBlend mode="normal" in2="BackgroundImageFix" result="effect1_dropShadow_2192_912"/>
<feBlend mode="normal" in="SourceGraphic" in2="effect1_dropShadow_2192_912" result="shape"/>
</filter>
</defs>
</svg>
