<svg width="92" height="92" viewBox="0 0 92 92" fill="none" xmlns="http://www.w3.org/2000/svg">
<g filter="url(#filter0_d_2192_463)">
<path d="M46 84C66.9868 84 84 66.9868 84 46C84 25.0132 66.9868 8 46 8C25.0132 8 8 25.0132 8 46C8 66.9868 25.0132 84 46 84Z" fill="white"/>
</g>
<path fill-rule="evenodd" clip-rule="evenodd" d="M52.8519 72.6479C51.205 74.4589 48.8954 76 46 76C43.1046 76 40.795 74.4589 39.1481 72.6479C37.5023 70.838 36.2038 68.4421 35.1955 65.8207C35.1105 65.5995 35.0269 65.3752 34.9449 65.148C34.7071 65.1906 34.4711 65.2304 34.237 65.2673C31.4627 65.7048 28.7385 65.7782 26.3482 65.2578C23.9563 64.7371 21.4669 63.5075 20.0192 61C18.5715 58.4925 18.7513 55.7218 19.4963 53.3901C20.2409 51.0598 21.6665 48.7373 23.4326 46.5534C23.5816 46.3692 23.734 46.1847 23.8898 46C23.734 45.8153 23.5816 45.6309 23.4325 45.4466C21.6665 43.2627 20.2409 40.9402 19.4963 38.6099C18.7513 36.2782 18.5715 33.5075 20.0192 31C21.4669 28.4925 23.9563 27.2629 26.3482 26.7422C28.7385 26.2218 31.4627 26.2952 34.237 26.7327C34.4711 26.7696 34.7071 26.8094 34.9449 26.852C35.0269 26.6248 35.1105 26.4005 35.1955 26.1793C36.2038 23.5579 37.5023 21.162 39.1481 19.3521C40.795 17.5411 43.1046 16 46 16C48.8954 16 51.205 17.5411 52.8519 19.3521C54.4977 21.162 55.7962 23.5579 56.8045 26.1793C56.8895 26.4005 56.9731 26.6248 57.0551 26.852C57.2929 26.8094 57.5289 26.7696 57.763 26.7327C60.5373 26.2952 63.2615 26.2218 65.6518 26.7422C68.0437 27.2629 70.5331 28.4925 71.9808 31C73.4285 33.5075 73.2487 36.2782 72.5037 38.6099C71.7591 40.9402 70.3335 43.2627 68.5674 45.4466C68.4184 45.6309 68.266 45.8153 68.1102 46C68.266 46.1847 68.4184 46.3691 68.5674 46.5534C70.3335 48.7373 71.7591 51.0598 72.5037 53.3901C73.2486 55.7218 73.4285 58.4925 71.9808 61C70.5331 63.5075 68.0436 64.7371 65.6518 65.2578C63.2615 65.7782 60.5373 65.7048 57.763 65.2673C57.5289 65.2304 57.2929 65.1906 57.0551 65.148C56.9731 65.3752 56.8895 65.5995 56.8045 65.8207C55.7962 68.4421 54.4977 70.838 52.8519 72.6479ZM23.4833 59C22.0881 56.5833 23.4 52.912 26.6436 48.9446C29.9614 52.1764 34.1979 55.3519 39 58.1244C39.7081 58.5332 40.4177 58.927 41.1271 59.3053C32.6023 62.3989 25.4983 62.49 23.4833 59ZM51 54.6603C49.3235 55.6282 47.6491 56.5009 46 57.2748C44.3509 56.5009 42.6765 55.6282 41 54.6603C39.3235 53.6923 37.7305 52.6787 36.2357 51.6374C36.0814 49.8223 36 47.9358 36 46C36 44.0642 36.0814 42.1777 36.2357 40.3626C37.7305 39.3214 39.3235 38.3077 41 37.3397C42.6765 36.3718 44.3509 35.4991 46 34.7252C47.6491 35.4991 49.3235 36.3718 51 37.3397C52.6765 38.3077 54.2695 39.3214 55.7643 40.3626C55.9186 42.1777 56 44.0642 56 46C56 47.9358 55.9186 49.8223 55.7643 51.6374C54.2695 52.6786 52.6765 53.6923 51 54.6603ZM32 46C32 46.8177 32.0137 47.629 32.0408 48.4326C25.0993 42.5967 21.4684 36.49 23.4833 33C24.8786 30.5833 28.714 29.8838 33.7717 30.7092C32.6317 35.1984 32 40.455 32 46ZM60 46C60 45.1824 59.9863 44.371 59.9592 43.5674C66.9007 49.4033 70.5316 55.51 68.5167 59C67.1214 61.4167 63.286 62.1162 58.2283 61.2908C59.3683 56.8016 60 51.545 60 46ZM68.5167 33C69.9119 35.4167 68.6 39.088 65.3564 43.0554C62.0386 39.8236 57.8021 36.6481 53 33.8756C52.2919 33.4668 51.5823 33.073 50.8729 32.6947C59.3977 29.6011 66.5017 29.51 68.5167 33ZM55.0863 56.8727C53.5031 65.8022 50.0299 72 46 72C43.2095 72 40.6859 69.0282 38.872 64.2354C43.3296 62.9781 48.1979 60.8968 53 58.1244C53.7081 57.7155 54.4039 57.2979 55.0863 56.8727ZM53.128 27.7646C48.6704 29.0219 43.8021 31.1032 39 33.8756C38.2919 34.2845 37.5961 34.7021 36.9137 35.1273C38.497 26.1978 41.9701 20 46 20C48.7905 20 51.3141 22.9718 53.128 27.7646ZM46.293 52.128C49.6774 52.128 52.421 49.3844 52.421 46C52.421 42.6157 49.6774 39.8721 46.293 39.8721C42.9086 39.8721 40.165 42.6157 40.165 46C40.165 49.3844 42.9086 52.128 46.293 52.128Z" fill="#72B8EB"/>
<defs>
<filter id="filter0_d_2192_463" x="1" y="1" width="90" height="90" filterUnits="userSpaceOnUse" color-interpolation-filters="sRGB">
<feFlood flood-opacity="0" result="BackgroundImageFix"/>
<feColorMatrix in="SourceAlpha" type="matrix" values="0 0 0 0 0 0 0 0 0 0 0 0 0 0 0 0 0 0 127 0" result="hardAlpha"/>
<feOffset/>
<feGaussianBlur stdDeviation="3.5"/>
<feColorMatrix type="matrix" values="0 0 0 0 0 0 0 0 0 0 0 0 0 0 0 0 0 0 0.15 0"/>
<feBlend mode="normal" in2="BackgroundImageFix" result="effect1_dropShadow_2192_463"/>
<feBlend mode="normal" in="SourceGraphic" in2="effect1_dropShadow_2192_463" result="shape"/>
</filter>
</defs>
</svg>
