<?xml version="1.0" encoding="UTF-8"?>
<svg width="60px" height="60px" viewBox="0 0 60 60" version="1.1" xmlns="http://www.w3.org/2000/svg" xmlns:xlink="http://www.w3.org/1999/xlink">
    <title>poi_cage_7</title>
    <g id="poi_cage_7" stroke="none" stroke-width="1" fill="none" fill-rule="evenodd">
        <g id="Group-14" transform="translate(10.000000, 4.000000)">
            <path d="M18.3333333,8.66666667 L22.6666667,8.66666667 L22.6666667,4.33333333 L18.3333333,4.33333333 L18.3333333,8.66666667 Z M20.5,0 C16.9105556,0 14,2.91055556 14,6.5 C14,10.0894444 16.9105556,13 20.5,13 C24.0894444,13 27,10.0894444 27,6.5 C27,2.91055556 24.0894444,0 20.5,0 L20.5,0 Z" id="Fill-2" stroke="#FFFFFF" stroke-width="5"></path>
            <rect id="Rectangle" fill="#FFFFFF" x="5" y="17" width="32" height="30"></rect>
            <polygon id="Fill-4" stroke="#FFFFFF" stroke-width="5" points="0 46 5 46 5 17 0 17"></polygon>
            <path d="M30,26.9570552 C30,26.9570552 27.4355607,23 24.1974379,23 C20.7757178,23 20.6617098,25.6825153 20.6617098,25.6825153 C20.6617098,25.6825153 20.6987254,29.9263804 20.6987254,30.5199387 C18.5607055,30.5199387 17.2059354,30.3082822 14.8680314,30.5245399 C12.1407236,30.7791411 11.2227372,33.5429448 11.2227372,33.5429448 L7,40 L12.46498,40 L14.869512,37.6886503 C14.869512,37.6886503 17.3199434,37.7530675 18.6628685,37.7530675 C25.6084717,37.7530675 25.328634,36.7745399 25.328634,31.8726994 C25.328634,28.2714724 30,26.9570552 30,26.9570552" id="Fill-5" stroke="#FFFFFF" stroke-width="5"></path>
            <polygon id="Fill-6" stroke="#FFFFFF" stroke-width="5" points="0 51 41 51 41 46 0 46"></polygon>
            <polygon id="Fill-7" stroke="#FFFFFF" stroke-width="5" points="9 29 14 29 14 17 9 17"></polygon>
            <polygon id="Fill-8" stroke="#FFFFFF" stroke-width="5" points="18 22 23 22 23 17 18 17"></polygon>
            <polygon id="Fill-9" stroke="#FFFFFF" stroke-width="5" points="9 47 14 47 14 42 9 42"></polygon>
            <polygon id="Fill-10" stroke="#FFFFFF" stroke-width="5" points="18 46 23 46 23 40 18 40"></polygon>
            <polygon id="Fill-11" stroke="#FFFFFF" stroke-width="5" points="27 22 32 22 32 17 27 17"></polygon>
            <polygon id="Fill-12" stroke="#FFFFFF" stroke-width="5" points="27 46 32 46 32 33 27 33"></polygon>
            <polygon id="Fill-13" stroke="#FFFFFF" stroke-width="5" points="36 46 41 46 41 17 36 17"></polygon>
            <polygon id="Fill-1" stroke="#FFFFFF" stroke-width="5" points="0 13.4992501 0 18 41 18 41 13.4992501 20.5 9"></polygon>
        </g>
        <g id="Group-14" transform="translate(10.000000, 4.000000)" fill="#646464">
            <path d="M18.3333333,8.66666667 L22.6666667,8.66666667 L22.6666667,4.33333333 L18.3333333,4.33333333 L18.3333333,8.66666667 Z M20.5,0 C16.9105556,0 14,2.91055556 14,6.5 C14,10.0894444 16.9105556,13 20.5,13 C24.0894444,13 27,10.0894444 27,6.5 C27,2.91055556 24.0894444,0 20.5,0 L20.5,0 Z" id="Fill-2"></path>
            <polygon id="Fill-4" points="0 46 5 46 5 17 0 17"></polygon>
            <path d="M30,26.9570552 C30,26.9570552 27.4355607,23 24.1974379,23 C20.7757178,23 20.6617098,25.6825153 20.6617098,25.6825153 C20.6617098,25.6825153 20.6987254,29.9263804 20.6987254,30.5199387 C18.5607055,30.5199387 17.2059354,30.3082822 14.8680314,30.5245399 C12.1407236,30.7791411 11.2227372,33.5429448 11.2227372,33.5429448 L7,40 L12.46498,40 L14.869512,37.6886503 C14.869512,37.6886503 17.3199434,37.7530675 18.6628685,37.7530675 C25.6084717,37.7530675 25.328634,36.7745399 25.328634,31.8726994 C25.328634,28.2714724 30,26.9570552 30,26.9570552" id="Fill-5"></path>
            <polygon id="Fill-6" points="0 51 41 51 41 46 0 46"></polygon>
            <polygon id="Fill-7" points="9 29 14 29 14 17 9 17"></polygon>
            <polygon id="Fill-8" points="18 22 23 22 23 17 18 17"></polygon>
            <polygon id="Fill-9" points="9 47 14 47 14 42 9 42"></polygon>
            <polygon id="Fill-10" points="18 46 23 46 23 40 18 40"></polygon>
            <polygon id="Fill-11" points="27 22 32 22 32 17 27 17"></polygon>
            <polygon id="Fill-12" points="27 46 32 46 32 33 27 33"></polygon>
            <polygon id="Fill-13" points="36 46 41 46 41 17 36 17"></polygon>
            <polygon id="Fill-1" points="0 13.4992501 0 18 41 18 41 13.4992501 20.5 9"></polygon>
        </g>
    </g>
</svg>