<svg width="92" height="92" viewBox="0 0 92 92" fill="none" xmlns="http://www.w3.org/2000/svg">
<g filter="url(#filter0_d_2192_708)">
<path d="M46 84C66.9868 84 84 66.9868 84 46C84 25.0132 66.9868 8 46 8C25.0132 8 8 25.0132 8 46C8 66.9868 25.0132 84 46 84Z" fill="white"/>
</g>
<path fill-rule="evenodd" clip-rule="evenodd" d="M63.9999 24C63.9999 27.3137 61.3137 30 57.9999 30C54.6862 30 51.9999 27.3137 51.9999 24C51.9999 20.6863 54.6862 18 57.9999 18C61.3137 18 63.9999 20.6863 63.9999 24ZM22.9999 28.5L23.9999 29L24.4999 28C24.7761 27.4477 25.4477 27.2239 25.9999 27.5C26.5522 27.7761 26.7761 28.4477 26.4999 29L25.9999 30L38.7142 36.3571L45.6245 30.1379C47.0575 28.8481 49.1339 28.567 50.8583 29.4292C52.7549 30.3775 53.6891 32.3984 53.3995 34.3264C53.4322 34.4216 53.4582 34.5208 53.4769 34.6237L54.9297 42.6142C54.9748 42.8622 55.1119 43.084 55.3136 43.2353L62.1861 48.3897C62.6573 48.7431 62.8084 49.383 62.545 49.9098C62.2439 50.5119 61.5118 50.756 60.9097 50.4549L53.2665 46.6333C52.447 46.2236 51.793 45.5449 51.4139 44.7108L49.4344 40.356L47.2563 43.1282L36.9285 37.9643L34.9999 37L24.9999 32L24.4999 33C24.2238 33.5523 23.5522 33.7761 22.9999 33.5C22.4477 33.2239 22.2238 32.5523 22.4999 32L22.9999 31L21.9999 30.5C21.4477 30.2239 21.2238 29.5523 21.4999 29C21.7761 28.4477 22.4477 28.2239 22.9999 28.5ZM34.0713 40.5357L33.4529 41.0923C30.8334 43.4498 31.4096 47.7048 34.5617 49.2809L42.3464 53.1733C43.0572 53.5286 43.0895 54.5311 42.4031 54.9315L33.2789 60.2539L17.4034 52.2157C16.4179 51.7167 15.2146 52.1111 14.7156 53.0965C14.2167 54.082 14.611 55.2854 15.5965 55.7843L49.7097 73.0568C53.6633 75.0586 58.3312 75.0704 62.2949 73.0886L64.8944 71.7889C65.8823 71.2949 66.2828 70.0935 65.7888 69.1056C65.2948 68.1176 64.0935 67.7172 63.1055 68.2111L60.506 69.5109C57.6748 70.9265 54.3406 70.9181 51.5166 69.4882L39.4809 63.3941L50.7611 58.7795C54.5715 57.2207 54.9706 51.9824 51.4404 49.8643L44.9999 46L34.0713 40.5357Z" fill="#F7B21B"/>
<defs>
<filter id="filter0_d_2192_708" x="1" y="1" width="90" height="90" filterUnits="userSpaceOnUse" color-interpolation-filters="sRGB">
<feFlood flood-opacity="0" result="BackgroundImageFix"/>
<feColorMatrix in="SourceAlpha" type="matrix" values="0 0 0 0 0 0 0 0 0 0 0 0 0 0 0 0 0 0 127 0" result="hardAlpha"/>
<feOffset/>
<feGaussianBlur stdDeviation="3.5"/>
<feColorMatrix type="matrix" values="0 0 0 0 0 0 0 0 0 0 0 0 0 0 0 0 0 0 0.15 0"/>
<feBlend mode="normal" in2="BackgroundImageFix" result="effect1_dropShadow_2192_708"/>
<feBlend mode="normal" in="SourceGraphic" in2="effect1_dropShadow_2192_708" result="shape"/>
</filter>
</defs>
</svg>
