<?xml version="1.0" encoding="UTF-8"?>
<svg width="60px" height="60px" viewBox="0 0 60 60" version="1.1" xmlns="http://www.w3.org/2000/svg" xmlns:xlink="http://www.w3.org/1999/xlink">
    <title>poi_skate_7</title>
    <g id="poi_skate_7" stroke="none" stroke-width="1" fill="none" fill-rule="evenodd">
        <g id="Group" transform="translate(4.000000, 4.000000)" stroke="#FFFFFF" stroke-width="5">
            <path d="M3.52941176,40 C1.58017147,40 0,38.4198285 0,36.4705882 C0,34.5213479 1.58017147,32.9411765 3.52941176,32.9411765 L9.94823529,32.9411765 C10.1472539,32.9411765 10.3363119,32.8629344 10.4760937,32.7231525 L32.7231525,10.4760937 C32.8629344,10.3363119 32.9411765,10.1472539 32.9411765,9.94823529 L32.9411765,3.52941176 C32.9411765,1.58017147 34.5213479,0 36.4705882,0 C38.4198285,0 40,1.58017147 40,3.52941176 L40,9.94823529 C40,12.0185878 39.1786166,14.0033136 37.7144945,15.4674357 L15.4674357,37.7144945 C14.0033136,39.1786166 12.0185878,40 9.94823529,40 L3.52941176,40 Z" id="Stroke-1" fill-rule="nonzero"></path>
            <path d="M33,45 C33,48.8663333 29.8663333,52 26,52 C22.1336667,52 19,48.8663333 19,45 C19,41.1336667 22.1336667,38 26,38 C29.8663333,38 33,41.1336667 33,45" id="Fill-3"></path>
            <path d="M52,26 C52,29.8663333 48.8663333,33 45,33 C41.1336667,33 38,29.8663333 38,26 C38,22.1336667 41.1336667,19 45,19 C48.8663333,19 52,22.1336667 52,26" id="Fill-5"></path>
        </g>
        <g id="Group" transform="translate(4.000000, 4.000000)" fill="#646464">
            <path d="M3.52941176,40 C1.58017147,40 0,38.4198285 0,36.4705882 C0,34.5213479 1.58017147,32.9411765 3.52941176,32.9411765 L9.94823529,32.9411765 C10.1472539,32.9411765 10.3363119,32.8629344 10.4760937,32.7231525 L32.7231525,10.4760937 C32.8629344,10.3363119 32.9411765,10.1472539 32.9411765,9.94823529 L32.9411765,3.52941176 C32.9411765,1.58017147 34.5213479,0 36.4705882,0 C38.4198285,0 40,1.58017147 40,3.52941176 L40,9.94823529 C40,12.0185878 39.1786166,14.0033136 37.7144945,15.4674357 L15.4674357,37.7144945 C14.0033136,39.1786166 12.0185878,40 9.94823529,40 L3.52941176,40 Z" id="Stroke-1" fill-rule="nonzero"></path>
            <path d="M33,45 C33,48.8663333 29.8663333,52 26,52 C22.1336667,52 19,48.8663333 19,45 C19,41.1336667 22.1336667,38 26,38 C29.8663333,38 33,41.1336667 33,45" id="Fill-3"></path>
            <path d="M52,26 C52,29.8663333 48.8663333,33 45,33 C41.1336667,33 38,29.8663333 38,26 C38,22.1336667 41.1336667,19 45,19 C48.8663333,19 52,22.1336667 52,26" id="Fill-5"></path>
        </g>
    </g>
</svg>