<?xml version="1.0" encoding="UTF-8"?>
<svg width="76px" height="76px" viewBox="0 0 76 76" version="1.1" xmlns="http://www.w3.org/2000/svg" xmlns:xlink="http://www.w3.org/1999/xlink">
    <title>poi_parking_moto_5</title>
    <g id="poi_parking_moto_5" stroke="none" stroke-width="1" fill="none" fill-rule="evenodd">
        <g id="Group" transform="translate(5.000000, 8.000000)" stroke="#FFFFFF" stroke-width="5">
            <path d="M11.5,36 C5.1474,36 0,41.1474 0,47.5 C0,53.8526 5.1474,59 11.5,59 C17.8526,59 23,53.8526 23,47.5 C23,41.1474 17.8526,36 11.5,36 M11.5,41 C15.0836667,41 18,43.9163333 18,47.5 C18,51.0836667 15.0836667,54 11.5,54 C7.91633333,54 5,51.0836667 5,47.5 C5,43.9163333 7.91633333,41 11.5,41" id="Fill-1"></path>
            <path d="M52.5,36 C46.1474,36 41,41.1474 41,47.5 C41,53.8526 46.1474,59 52.5,59 C58.8526,59 64,53.8526 64,47.5 C64,41.1474 58.8526,36 52.5,36 M52.5,41 C56.0836667,41 59,43.9163333 59,47.5 C59,51.0836667 56.0836667,54 52.5,54 C48.9163333,54 46,51.0836667 46,47.5 C46,43.9163333 48.9163333,41 52.5,41" id="Fill-3"></path>
            <polygon id="Fill-5" points="9 50 32 50 32 45 9 45"></polygon>
            <polygon id="Fill-7" points="27 23 41 23 41 18 27 18"></polygon>
            <polygon id="Fill-8" points="50.5 50 37 22.5714286 41.6722576 19.3343339 55 45.4285714 55 50"></polygon>
            <path d="M54.5,27 L59,27 L59,18 L54.5,18 C52.0115,18 50,20.016 50,22.5 C50,24.984 52.0115,27 54.5,27" id="Fill-9"></path>
            <polygon id="Fill-10" points="41.4444444 27 27.7777778 27 23.2222222 27 5 27 5 31.6 21.1780731 31.6 27.7777778 45.2538713 33 48.4016948 46 31.6"></polygon>
            <path d="M10,14 L18.6666667,14 C21.0586667,14 23,11.755 23,9 C23,6.245 21.0586667,4 18.6666667,4 L10,4 L10,14 Z M18.8,18 L5,18 L5,0 L18.8,0 C23.8738,0 28,4.0365 28,9 C28,13.9635 23.8738,18 18.8,18 L18.8,18 Z" id="Fill-1"></path>
            <polygon id="Fill-3" points="5 28 10 28 10 14 5 14"></polygon>
        </g>
        <g id="Group" transform="translate(5.000000, 8.000000)" fill="#72B8EB">
            <path d="M11.5,36 C5.1474,36 0,41.1474 0,47.5 C0,53.8526 5.1474,59 11.5,59 C17.8526,59 23,53.8526 23,47.5 C23,41.1474 17.8526,36 11.5,36 M11.5,41 C15.0836667,41 18,43.9163333 18,47.5 C18,51.0836667 15.0836667,54 11.5,54 C7.91633333,54 5,51.0836667 5,47.5 C5,43.9163333 7.91633333,41 11.5,41" id="Fill-1"></path>
            <path d="M52.5,36 C46.1474,36 41,41.1474 41,47.5 C41,53.8526 46.1474,59 52.5,59 C58.8526,59 64,53.8526 64,47.5 C64,41.1474 58.8526,36 52.5,36 M52.5,41 C56.0836667,41 59,43.9163333 59,47.5 C59,51.0836667 56.0836667,54 52.5,54 C48.9163333,54 46,51.0836667 46,47.5 C46,43.9163333 48.9163333,41 52.5,41" id="Fill-3"></path>
            <polygon id="Fill-5" points="9 50 32 50 32 45 9 45"></polygon>
            <polygon id="Fill-7" points="27 23 41 23 41 18 27 18"></polygon>
            <polygon id="Fill-8" points="50.5 50 37 22.5714286 41.5 18 55 45.4285714 55 50"></polygon>
            <path d="M54.5,27 L59,27 L59,18 L54.5,18 C52.0115,18 50,20.016 50,22.5 C50,24.984 52.0115,27 54.5,27" id="Fill-9"></path>
            <polygon id="Fill-10" points="41.4444444 27 27.7777778 27 23.2222222 27 5 27 5 31.6 21.1780731 31.6 27.7777778 45.2538713 32.3333333 50 46 31.6"></polygon>
            <path d="M10,14 L18.6666667,14 C21.0586667,14 23,11.755 23,9 C23,6.245 21.0586667,4 18.6666667,4 L10,4 L10,14 Z M18.8,18 L5,18 L5,0 L18.8,0 C23.8738,0 28,4.0365 28,9 C28,13.9635 23.8738,18 18.8,18 L18.8,18 Z" id="Fill-1"></path>
            <polygon id="Fill-3" points="5 28 10 28 10 14 5 14"></polygon>
        </g>
    </g>
</svg>