<?xml version="1.0" encoding="UTF-8"?>
<svg width="60px" height="60px" viewBox="0 0 60 60" version="1.1" xmlns="http://www.w3.org/2000/svg" xmlns:xlink="http://www.w3.org/1999/xlink">
    <title>poi_waterfall_7</title>
    <g id="poi_waterfall_7" stroke="none" stroke-width="1" fill="none" fill-rule="evenodd">
        <g id="Group" transform="translate(4.000000, 7.000000)">
            <path d="M12.839623,46.9984552 L20.9828538,47 C20.9828538,47 21.0214327,42.8969389 20.9828538,39.2712294 C20.9396455,35.0584856 17.8517916,30.7391487 13.7331099,30.1026798 C7.97559726,29.2144042 3.13163256,34.2211892 4.13159724,40.0235603 C4.84762133,44.174511 8.67618979,47.0417103 12.839623,46.9984552" id="Fill-1" stroke="#FFFFFF" stroke-width="5"></path>
            <path d="M43.159787,46.9984552 L35.0160135,47 C35.0160135,47 34.9789753,42.8969389 35.0175568,39.2727742 C35.060768,35.0584856 38.1488276,30.7391487 42.2677837,30.1026798 C48.0241368,29.2144042 52.8684242,34.2211892 51.8683929,40.0235603 C51.1523211,44.174511 47.3250408,47.0417103 43.159787,46.9984552" id="Fill-3" stroke="#FFFFFF" stroke-width="5"></path>
            <path d="M11,0 L0,0 L0,5 L11,5 C13.9795385,4.56 16.1538462,6.60592 16,9 L16,38 L21,38 L21,9 C21,4.08424 16.6594615,0 11,0" id="Fill-5" stroke="#FFFFFF" stroke-width="5"></path>
            <path d="M9,0 L9,5 L20,5 C22.9795385,4.65 25.1538462,6.7363 25,9 L25,40 L30,40 L30,9 C30,4.16485 25.6594615,0 20,0 L9,0 Z" id="Fill-8" stroke="#FFFFFF" stroke-width="5"></path>
            <rect id="Rectangle" fill="#FFFFFF" x="27" y="4" width="10" height="36"></rect>
            <path d="M30,0 L19,0 L19,5 L30,5 C32.9795385,4.56 35.1538462,6.60592 35,9 L35,38 L40,38 L40,9 C40,4.08424 35.6594615,0 30,0" id="Fill-11" stroke="#FFFFFF" stroke-width="5"></path>
            <polygon id="Fill-14" stroke="#FFFFFF" stroke-width="5" points="21 47 35 47 35 40 21 40"></polygon>
        </g>
        <g id="Group" transform="translate(4.000000, 7.000000)" fill="#646464">
            <path d="M12.839623,46.9984552 L20.9828538,47 C20.9828538,47 21.0214327,42.8969389 20.9828538,39.2712294 C20.9396455,35.0584856 17.8517916,30.7391487 13.7331099,30.1026798 C7.97559726,29.2144042 3.13163256,34.2211892 4.13159724,40.0235603 C4.84762133,44.174511 8.67618979,47.0417103 12.839623,46.9984552" id="Fill-1"></path>
            <path d="M43.159787,46.9984552 L35.0160135,47 C35.0160135,47 34.9789753,42.8969389 35.0175568,39.2727742 C35.060768,35.0584856 38.1488276,30.7391487 42.2677837,30.1026798 C48.0241368,29.2144042 52.8684242,34.2211892 51.8683929,40.0235603 C51.1523211,44.174511 47.3250408,47.0417103 43.159787,46.9984552" id="Fill-3"></path>
            <path d="M11,0 L0,0 L0,5 L11,5 C13.9795385,4.56 16.1538462,6.60592 16,9 L16,38 L21,38 L21,9 C21,4.08424 16.6594615,0 11,0" id="Fill-5"></path>
            <path d="M10,0 L10,5 L21,5 C23.9795385,4.65 26.1538462,6.7363 26,9 L26,40 L31,40 L31,9 C31,4.16485 26.6594615,0 21,0 L10,0 Z" id="Fill-8"></path>
            <path d="M30,0 L19,0 L19,5 L30,5 C32.9795385,4.56 35.1538462,6.60592 35,9 L35,38 L40,38 L40,9 C40,4.08424 35.6594615,0 30,0" id="Fill-11"></path>
            <polygon id="Fill-14" points="21 47 35 47 35 40 21 40"></polygon>
        </g>
    </g>
</svg>