<?xml version="1.0" encoding="UTF-8"?>
<svg width="60px" height="60px" viewBox="0 0 60 60" version="1.1" xmlns="http://www.w3.org/2000/svg" xmlns:xlink="http://www.w3.org/1999/xlink">
    <title>poi_flower_7</title>
    <g id="poi_flower_7" stroke="none" stroke-width="1" fill="none" fill-rule="evenodd">
        <g id="Group-12" transform="translate(6.000000, 5.000000)" stroke="#FFFFFF" stroke-width="5">
            <path d="M42.6153846,35 C34.5447692,35 28,41.2692 28,49 L32.3846154,49 C40.4552308,49 47,42.7308 47,35 L42.6153846,35 Z" id="Fill-2"></path>
            <path d="M4.38461538,35 C12.4552308,35 19,41.2692 19,49 L14.6153846,49 C6.54476923,49 0,42.7308 0,35 L4.38461538,35 Z" id="Fill-4"></path>
            <path d="M30.6691763,14.82521 C30.6691763,20.9049629 29.4226428,24 23.4096884,24 C17.3952393,24 16.1487058,20.9049629 16.1487058,14.82521 C16.1487058,8.74394577 23.4096884,0.144941447 23.4096884,0.144941447 C23.4096884,0.144941447 30.6691763,8.74394577 30.6691763,14.82521" id="Fill-6"></path>
            <path d="M28.6319998,3.88453101 C30.4481797,7.45582756 32.2628648,9.24294671 32.2628648,14.6013624 C32.2628648,19.9583072 28.6319998,21.9256471 28.6319998,21.9256471 C28.6319998,21.9256471 35.892235,21.7454264 35.892235,14.6013624 C35.892235,7.45582756 29.2829937,0.144941447 29.2829937,0.144941447 L28.6319998,3.88453101 Z" id="Fill-10"></path>
            <path d="M11,3.88453101 L11.6509939,0.144941447 C11.6509939,0.144941447 18.2602352,7.45582756 18.2602352,14.6013624 C18.2602352,21.7454264 11,21.9256471 11,21.9256471 C11,21.9256471 14.630865,19.9583072 14.630865,14.6013624 C14.630865,9.24294671 12.8161799,7.45582756 11,3.88453101 Z" id="Fill-10" transform="translate(14.630118, 11.035294) scale(-1, 1) translate(-14.630118, -11.035294) "></path>
            <polygon id="Fill-1" points="21 49 26 49 26 23 21 23"></polygon>
        </g>
        <g id="Group-12" transform="translate(6.000000, 3.000000)" fill="#646464">
            <path d="M47,37 L42.6153846,37 C34.5447692,37 28,43.2692 28,51 L32.3846154,51 C40.4552308,51 47,44.7308 47,37" id="Fill-2"></path>
            <path d="M0,37 L4.38461538,37 C12.4552308,37 19,43.2692 19,51 L14.6153846,51 C6.54476923,51 0,44.7308 0,37" id="Fill-4"></path>
            <path d="M30.7443944,16.748191 C30.7443944,22.8789813 29.4811015,26 23.3873038,26 C17.2919915,26 16.0286986,22.8789813 16.0286986,16.748191 C16.0286986,10.6158768 23.3873038,1.94468704 23.3873038,1.94468704 C23.3873038,1.94468704 30.7443944,10.6158768 30.7443944,16.748191" id="Fill-6"></path>
            <path d="M17.5152957,0.898803867 L17.5152957,6.39454625 C15.8414921,10.0573688 14.1690661,11.8902886 14.1690661,17.386031 C14.1690661,22.8802648 19.2331831,26 19.2331831,26 C19.2331831,26 10.8242141,24.7131847 10.8242141,17.386031 C10.8242141,10.0573688 17.5152957,0.898803867 17.5152957,0.898803867" id="Fill-8"></path>
            <path d="M29.3089183,6.39454625 C30.982722,10.0573688 32.655148,11.8902886 32.655148,17.386031 C32.655148,22.8802648 27.591031,26 27.591031,26 C27.591031,26 36,24.7131847 36,17.386031 C36,10.0573688 29.3089183,0.898803867 29.3089183,0.898803867 L29.3089183,6.39454625 Z" id="Fill-10"></path>
            <polygon id="Fill-1" points="21 51 26 51 26 25 21 25"></polygon>
        </g>
    </g>
</svg>