<?xml version="1.0" encoding="UTF-8"?>
<svg width="76px" height="76px" viewBox="0 0 76 76" version="1.1" xmlns="http://www.w3.org/2000/svg" xmlns:xlink="http://www.w3.org/1999/xlink">
    <title>poi_parking_bike_5</title>
    <g id="poi_parking_bike_5" stroke="none" stroke-width="1" fill="none" fill-rule="evenodd">
        <g id="Group" transform="translate(4.000000, 3.000000)" stroke="#FFFFFF" stroke-width="5">
            <path d="M10,14 L19.3333333,14 C21.9093333,14 24,11.9795 24,9.5 C24,7.0205 21.9093333,5 19.3333333,5 L10,5 L10,14 Z M19.4,19 L5,19 L5,0 L19.4,0 C24.6944,0 29,4.26075 29,9.5 C29,14.73925 24.6944,19 19.4,19 L19.4,19 Z" id="Fill-1"></path>
            <polygon id="Fill-3" points="5 30 10 30 10 15 5 15"></polygon>
            <path d="M12,45 C5.3712,45 0,50.3712 0,57 C0,63.6288 5.3712,69 12,69 C18.6288,69 24,63.6288 24,57 C24,50.3712 18.6288,45 12,45 M12,50 C15.8593333,50 19,53.1406667 19,57 C19,60.8593333 15.8593333,64 12,64 C8.14066667,64 5,60.8593333 5,57 C5,53.1406667 8.14066667,50 12,50" id="Fill-1"></path>
            <path d="M56,45 C49.3712,45 44,50.3712 44,57 C44,63.6288 49.3712,69 56,69 C62.6288,69 68,63.6288 68,57 C68,50.3712 62.6288,45 56,45 M56,50 C59.8593333,50 63,53.1406667 63,57 C63,60.8593333 59.8593333,64 56,64 C52.1406667,64 49,60.8593333 49,57 C49,53.1406667 52.1406667,50 56,50" id="Fill-3"></path>
            <polygon id="Fill-5" points="29 24 44 24 44 19 29 19"></polygon>
            <polygon id="Fill-7" points="55.6113001 59 40 23.684255 43.8377731 20.6428455 60 55.5595585"></polygon>
            <path d="M10,55.5043263 C15.8222196,49.3386897 28.9420567,35 46.6655094,35 L49,39.9443758 C37.9111696,39.9443758 24.5672214,47.0692213 13.3009697,59 L10,55.5043263 Z" id="Fill-10"></path>
            <path d="M23.0839629,48 C22.068638,44.826577 19.4733434,41.9597389 15.9663285,40.141744 C12.4593136,38.3237491 8.69846752,37.8934545 5.64213253,38.9422977 L4,33.8433061 C8.35139219,32.3265175 13.5471617,32.8751431 18.2818908,35.3332013 C23.0062594,37.7858808 26.5495359,41.7822423 28,46.3003361 L23.0839629,48 Z" id="Fill-11"></path>
        </g>
        <g id="Group" transform="translate(4.000000, 3.000000)" fill="#72B8EB">
            <path d="M10,14 L19.3333333,14 C21.9093333,14 24,11.9795 24,9.5 C24,7.0205 21.9093333,5 19.3333333,5 L10,5 L10,14 Z M19.4,19 L5,19 L5,0 L19.4,0 C24.6944,0 29,4.26075 29,9.5 C29,14.73925 24.6944,19 19.4,19 L19.4,19 Z" id="Fill-1"></path>
            <polygon id="Fill-3" points="5 30 10 30 10 15 5 15"></polygon>
            <path d="M12,45 C5.3712,45 0,50.3712 0,57 C0,63.6288 5.3712,69 12,69 C18.6288,69 24,63.6288 24,57 C24,50.3712 18.6288,45 12,45 M12,50 C15.8593333,50 19,53.1406667 19,57 C19,60.8593333 15.8593333,64 12,64 C8.14066667,64 5,60.8593333 5,57 C5,53.1406667 8.14066667,50 12,50" id="Fill-1"></path>
            <path d="M56,45 C49.3712,45 44,50.3712 44,57 C44,63.6288 49.3712,69 56,69 C62.6288,69 68,63.6288 68,57 C68,50.3712 62.6288,45 56,45 M56,50 C59.8593333,50 63,53.1406667 63,57 C63,60.8593333 59.8593333,64 56,64 C52.1406667,64 49,60.8593333 49,57 C49,53.1406667 52.1406667,50 56,50" id="Fill-3"></path>
            <polygon id="Fill-5" points="29 24 44 24 44 19 29 19"></polygon>
            <polygon id="Fill-7" points="55.6113001 59 40 23.684255 43.8972181 19 60 55.5595585"></polygon>
            <path d="M13.3009697,59 L10,55.5043263 C15.8222196,49.3386897 28.9420567,35 46.6655094,35 L49,39.9443758 C37.9111696,39.9443758 24.5672214,47.0692213 13.3009697,59" id="Fill-10"></path>
            <path d="M23.0839629,48 C22.068638,44.826577 19.4733434,41.9597389 15.9663285,40.141744 C12.4593136,38.3237491 8.69846752,37.8934545 5.64213253,38.9422977 L4,33.8433061 C8.35139219,32.3265175 13.5471617,32.8751431 18.2818908,35.3332013 C23.0062594,37.7858808 26.5495359,41.7822423 28,46.3003361 L23.0839629,48 Z" id="Fill-11"></path>
        </g>
    </g>
</svg>