<?xml version="1.0" encoding="UTF-8"?>
<svg width="60px" height="60px" viewBox="0 0 60 60" version="1.1" xmlns="http://www.w3.org/2000/svg" xmlns:xlink="http://www.w3.org/1999/xlink">
    <title>poi_helipad_7</title>
    <g id="poi_helipad_7" stroke="none" stroke-width="1" fill="none" fill-rule="evenodd">
        <path d="M41,42 L36,42 L36,31 L24,31 L24,42 L19,42 L19,17 L24,17 L24,27 L36,27 L36,17 L41,17 L41,42 Z M30,6 C16.7456,6 6,16.7456 6,30 C6,43.2544 16.7456,54 30,54 C43.2544,54 54,43.2544 54,30 C54,16.7456 43.2544,6 30,6 L30,6 Z" id="Fill-1" stroke="#FFFFFF" stroke-width="5"></path>
        <path d="M41,42 L36,42 L36,31 L24,31 L24,42 L19,42 L19,17 L24,17 L24,27 L36,27 L36,17 L41,17 L41,42 Z M30,6 C16.7456,6 6,16.7456 6,30 C6,43.2544 16.7456,54 30,54 C43.2544,54 54,43.2544 54,30 C54,16.7456 43.2544,6 30,6 L30,6 Z" id="Fill-1" fill="#646464"></path>
    </g>
</svg>