<svg width="92" height="92" viewBox="0 0 92 92" fill="none" xmlns="http://www.w3.org/2000/svg">
<g filter="url(#filter0_d_2266_319)">
<path d="M46 84C66.9868 84 84 66.9868 84 46C84 25.0132 66.9868 8 46 8C25.0132 8 8 25.0132 8 46C8 66.9868 25.0132 84 46 84Z" fill="white"/>
</g>
<path fill-rule="evenodd" clip-rule="evenodd" d="M46 44C51.5228 44 56 39.5228 56 34C56 28.4772 46 16 46 16C46 16 36 28.4772 36 34C36 39.5228 40.4772 44 46 44ZM25.8203 34.4473C27.7691 33.1842 29.9771 32.1088 32.3811 31.2556C32.1459 32.1704 32 33.0977 32 34C32 34.5594 32.0328 35.1111 32.0966 35.6534C30.6064 36.2802 29.2321 37.0027 27.9959 37.8039C23.4593 40.7444 21 44.5709 21 48.5C21 52.4291 23.4593 56.2556 27.9959 59.1961C32.513 62.1238 38.8728 64 46 64C53.1272 64 59.487 62.1238 64.0041 59.1961C68.5407 56.2556 71 52.4291 71 48.5C71 44.5709 68.5407 40.7444 64.0041 37.8039C62.7679 37.0027 61.3936 36.2802 59.9034 35.6534C59.9672 35.1111 60 34.5594 60 34C60 33.0977 59.8541 32.1704 59.6189 31.2556C62.0229 32.1088 64.2309 33.1842 66.1797 34.4473C71.4151 37.8407 75 42.7641 75 48.5C75 54.2359 71.4151 59.1593 66.1797 62.5527C60.9247 65.9587 53.7845 68 46 68C38.2155 68 31.0753 65.9587 25.8203 62.5527C20.5849 59.1593 17 54.2359 17 48.5C17 42.7641 20.5849 37.8407 25.8203 34.4473ZM33.0848 39.7007C33.1187 39.6838 33.1527 39.6669 33.1869 39.65C33.7355 40.8922 34.4594 42.0396 35.3272 43.0609C35.1726 43.132 35.0214 43.2045 34.8736 43.2784C32.0098 44.7103 31 46.3184 31 47.5C31 48.6816 32.0098 50.2897 34.8736 51.7216C37.6178 53.0936 41.5487 54 46 54C50.4513 54 54.3822 53.0936 57.1264 51.7216C59.9902 50.2897 61 48.6816 61 47.5C61 46.3184 59.9902 44.7103 57.1264 43.2784C56.9786 43.2045 56.8274 43.132 56.6728 43.0609C57.5406 42.0396 58.2645 40.8922 58.8131 39.65C58.8473 39.6669 58.8813 39.6838 58.9152 39.7007C62.2042 41.3452 65 43.9871 65 47.5C65 51.0129 62.2042 53.6548 58.9152 55.2993C55.5066 57.0036 50.9376 58 46 58C41.0624 58 36.4934 57.0036 33.0848 55.2993C29.7958 53.6548 27 51.0129 27 47.5C27 43.9871 29.7958 41.3452 33.0848 39.7007Z" fill="#F28B3D"/>
<defs>
<filter id="filter0_d_2266_319" x="1" y="1" width="90" height="90" filterUnits="userSpaceOnUse" color-interpolation-filters="sRGB">
<feFlood flood-opacity="0" result="BackgroundImageFix"/>
<feColorMatrix in="SourceAlpha" type="matrix" values="0 0 0 0 0 0 0 0 0 0 0 0 0 0 0 0 0 0 127 0" result="hardAlpha"/>
<feOffset/>
<feGaussianBlur stdDeviation="3.5"/>
<feColorMatrix type="matrix" values="0 0 0 0 0 0 0 0 0 0 0 0 0 0 0 0 0 0 0.15 0"/>
<feBlend mode="normal" in2="BackgroundImageFix" result="effect1_dropShadow_2266_319"/>
<feBlend mode="normal" in="SourceGraphic" in2="effect1_dropShadow_2266_319" result="shape"/>
</filter>
</defs>
</svg>
