<svg width="92" height="92" viewBox="0 0 92 92" fill="none" xmlns="http://www.w3.org/2000/svg">
<g filter="url(#filter0_d_2744_385)">
<path d="M46 84C66.9868 84 84 66.9868 84 46C84 25.0132 66.9868 8 46 8C25.0132 8 8 25.0132 8 46C8 66.9868 25.0132 84 46 84Z" fill="white"/>
</g>
<path d="M28.2426 50.2426L41.7574 63.7574C44.1005 66.1005 47.8995 66.1005 50.2426 63.7574L63.7574 50.2426C66.1005 47.8995 66.1005 44.1005 63.7574 41.7574L50.2426 28.2426C47.8995 25.8995 44.1005 25.8995 41.7574 28.2426L28.2426 41.7574C25.8995 44.1005 25.8995 47.8995 28.2426 50.2426Z" fill="#F28B3D"/>
<defs>
<filter id="filter0_d_2744_385" x="1" y="1" width="90" height="90" filterUnits="userSpaceOnUse" color-interpolation-filters="sRGB">
<feFlood flood-opacity="0" result="BackgroundImageFix"/>
<feColorMatrix in="SourceAlpha" type="matrix" values="0 0 0 0 0 0 0 0 0 0 0 0 0 0 0 0 0 0 127 0" result="hardAlpha"/>
<feOffset/>
<feGaussianBlur stdDeviation="3.5"/>
<feColorMatrix type="matrix" values="0 0 0 0 0 0 0 0 0 0 0 0 0 0 0 0 0 0 0.15 0"/>
<feBlend mode="normal" in2="BackgroundImageFix" result="effect1_dropShadow_2744_385"/>
<feBlend mode="normal" in="SourceGraphic" in2="effect1_dropShadow_2744_385" result="shape"/>
</filter>
</defs>
</svg>
