<svg width="92" height="92" viewBox="0 0 92 92" fill="none" xmlns="http://www.w3.org/2000/svg">
<g filter="url(#filter0_d_1475_466)">
<path d="M46 84C66.9868 84 84 66.9868 84 46C84 25.0132 66.9868 8 46 8C25.0132 8 8 25.0132 8 46C8 66.9868 25.0132 84 46 84Z" fill="#6DC234"/>
</g>
<path fill-rule="evenodd" clip-rule="evenodd" d="M23 42V37L28 23H64L69 37V42C69 44.7614 66.7614 47 64 47C61.2386 47 59 44.7614 59 42C59 41.4477 58.5523 41 58 41C57.4477 41 57 41.4477 57 42C57 44.7614 54.7614 47 52 47C49.2386 47 47 44.7614 47 42C47 41.4477 46.5523 41 46 41C45.4477 41 45 41.4477 45 42C45 44.7614 42.7614 47 40 47C37.2386 47 35 44.7614 35 42C35 41.4477 34.5523 41 34 41C33.4477 41 33 41.4477 33 42C33 44.7614 30.7614 47 28 47C25.2386 47 23 44.7614 23 42ZM28 35C28 34.4477 28.4477 34 29 34H63C63.5523 34 64 34.4477 64 35C64 35.5523 63.5523 36 63 36H29C28.4477 36 28 35.5523 28 35ZM28 69V50C29.4571 50 30.8233 49.6104 32 48.9297V57H60V48.9297C61.1767 49.6104 62.5429 50 64 50V69H28Z" fill="white"/>
<defs>
<filter id="filter0_d_1475_466" x="1" y="1" width="90" height="90" filterUnits="userSpaceOnUse" color-interpolation-filters="sRGB">
<feFlood flood-opacity="0" result="BackgroundImageFix"/>
<feColorMatrix in="SourceAlpha" type="matrix" values="0 0 0 0 0 0 0 0 0 0 0 0 0 0 0 0 0 0 127 0" result="hardAlpha"/>
<feOffset/>
<feGaussianBlur stdDeviation="3.5"/>
<feColorMatrix type="matrix" values="0 0 0 0 0 0 0 0 0 0 0 0 0 0 0 0 0 0 0.15 0"/>
<feBlend mode="normal" in2="BackgroundImageFix" result="effect1_dropShadow_1475_466"/>
<feBlend mode="normal" in="SourceGraphic" in2="effect1_dropShadow_1475_466" result="shape"/>
</filter>
</defs>
</svg>
