<?xml version="1.0" encoding="UTF-8"?>
<svg width="92px" height="92px" viewBox="0 0 92 92" version="1.1" xmlns="http://www.w3.org/2000/svg" xmlns:xlink="http://www.w3.org/1999/xlink">
    <title>poi_new_building_i</title>
    <g id="Page-1" stroke="none" stroke-width="1" fill="none" fill-rule="evenodd">
        <g id="Artboard" transform="translate(-351.000000, -639.000000)">
            <g id="poi_new_building_i" transform="translate(351.000000, 639.000000)">
                <circle id="Oval-Shadow-1" fill-opacity="0.02" fill="#000000" cx="46" cy="46" r="46"></circle>
                <circle id="Oval-Shadow-2" fill-opacity="0.02" fill="#000000" cx="46" cy="46" r="44"></circle>
                <circle id="Oval-Shadow-3" fill-opacity="0.02" fill="#000000" cx="46" cy="46" r="42"></circle>
                <circle id="Oval-Shadow-4" fill-opacity="0.02" fill="#000000" cx="46" cy="46" r="40"></circle>
                <path d="M46,84 C66.9868,84 84,66.9868 84,46 C84,25.0132 66.9868,8 46,8 C25.0132,8 8,25.0132 8,46 C8,66.9868 25.0132,84 46,84 Z" id="Path" fill="#6DC234" fill-rule="nonzero"></path>
                <path d="M37,22 L21,30 L21,66 L34,66 L34,58 L40,58 L40,66 L53,66 L53,30 L37,22 Z M57,66 L73,66 L73,46 L57,42 L57,66 Z M28,46 L34,46 L34,52 L28,52 L28,46 Z M46,46 L40,46 L40,52 L46,52 L46,46 Z M28,34 L34,34 L34,40 L28,40 L28,34 Z M46,34 L40,34 L40,40 L46,40 L46,34 Z" id="Shape" fill="#FFFFFF"></path>
            </g>
        </g>
    </g>
</svg>