<svg width="92" height="92" viewBox="0 0 92 92" fill="none" xmlns="http://www.w3.org/2000/svg">
<g filter="url(#filter0_d_624_2112)">
<path d="M46 84C66.9868 84 84 66.9868 84 46C84 25.0132 66.9868 8 46 8C25.0132 8 8 25.0132 8 46C8 66.9868 25.0132 84 46 84Z" fill="#6DC234"/>
</g>
<path fill-rule="evenodd" clip-rule="evenodd" d="M35.5822 29.5068L35 33H28C26.3431 33 25 34.3431 25 36V58C25 59.6569 26.3431 61 28 61H64C65.6569 61 67 59.6569 67 58V36C67 34.3431 65.6569 33 64 33H57L56.4178 29.5068C56.1767 28.0602 54.9251 27 53.4586 27H38.5414C37.0749 27 35.8233 28.0602 35.5822 29.5068ZM46 56C51.5228 56 56 51.5228 56 46C56 40.4772 51.5228 36 46 36C40.4772 36 36 40.4772 36 46C36 51.5228 40.4772 56 46 56Z" fill="white"/>
<defs>
<filter id="filter0_d_624_2112" x="1" y="1" width="90" height="90" filterUnits="userSpaceOnUse" color-interpolation-filters="sRGB">
<feFlood flood-opacity="0" result="BackgroundImageFix"/>
<feColorMatrix in="SourceAlpha" type="matrix" values="0 0 0 0 0 0 0 0 0 0 0 0 0 0 0 0 0 0 127 0" result="hardAlpha"/>
<feOffset/>
<feGaussianBlur stdDeviation="3.5"/>
<feColorMatrix type="matrix" values="0 0 0 0 0 0 0 0 0 0 0 0 0 0 0 0 0 0 0.15 0"/>
<feBlend mode="normal" in2="BackgroundImageFix" result="effect1_dropShadow_624_2112"/>
<feBlend mode="normal" in="SourceGraphic" in2="effect1_dropShadow_624_2112" result="shape"/>
</filter>
</defs>
</svg>
